ISO-10303-21;
HEADER;
/* Generated by software containing ST-Developer
 * from STEP Tools, Inc. (www.steptools.com) 
 */

FILE_DESCRIPTION(
/* description */ (''),
/* implementation_level */ '2;1');

FILE_NAME(
/* name */ 'SideHingeLasered_Top.step',
/* time_stamp */ '2026-06-10T23:31:32+02:00',
/* author */ (''),
/* organization */ (''),
/* preprocessor_version */ 'ST-DEVELOPER v20.1',
/* originating_system */ 'Autodesk Translation Framework v15.8.0.0',
/* authorisation */ '');

FILE_SCHEMA (('AUTOMOTIVE_DESIGN { 1 0 10303 214 3 1 1 }'));
ENDSEC;

DATA;
#10=MECHANICAL_DESIGN_GEOMETRIC_PRESENTATION_REPRESENTATION('',(#13),#730);
#11=SHAPE_REPRESENTATION_RELATIONSHIP('SRR','None',#737,#12);
#12=ADVANCED_BREP_SHAPE_REPRESENTATION('',(#14),#729);
#13=STYLED_ITEM('',(#747),#14);
#14=MANIFOLD_SOLID_BREP('Body1',#410);
#15=CYLINDRICAL_SURFACE('',#441,4.62499999998015);
#16=CYLINDRICAL_SURFACE('',#443,46.0000000000017);
#17=CYLINDRICAL_SURFACE('',#445,9.99999999999998);
#18=CYLINDRICAL_SURFACE('',#448,10.);
#19=CYLINDRICAL_SURFACE('',#451,39.9999999999999);
#20=CYLINDRICAL_SURFACE('',#453,4.);
#21=CYLINDRICAL_SURFACE('',#455,4.);
#22=CYLINDRICAL_SURFACE('',#457,4.);
#23=CYLINDRICAL_SURFACE('',#459,4.62499999996291);
#24=CYLINDRICAL_SURFACE('',#461,55.2499999999619);
#25=CYLINDRICAL_SURFACE('',#463,10.5);
#26=CYLINDRICAL_SURFACE('',#465,64.4169436413652);
#27=CYLINDRICAL_SURFACE('',#468,70.0000000000002);
#28=CYLINDRICAL_SURFACE('',#470,76.9872260476987);
#29=CYLINDRICAL_SURFACE('',#472,40.0000000000013);
#30=CYLINDRICAL_SURFACE('',#474,44.9999999999999);
#31=FACE_BOUND('',#63,.T.);
#32=FACE_BOUND('',#64,.T.);
#33=FACE_BOUND('',#65,.T.);
#34=FACE_BOUND('',#66,.T.);
#35=FACE_BOUND('',#67,.T.);
#36=FACE_BOUND('',#88,.T.);
#37=FACE_BOUND('',#89,.T.);
#38=FACE_BOUND('',#90,.T.);
#39=FACE_BOUND('',#91,.T.);
#40=FACE_BOUND('',#92,.T.);
#41=FACE_OUTER_BOUND('',#62,.T.);
#42=FACE_OUTER_BOUND('',#68,.T.);
#43=FACE_OUTER_BOUND('',#69,.T.);
#44=FACE_OUTER_BOUND('',#70,.T.);
#45=FACE_OUTER_BOUND('',#71,.T.);
#46=FACE_OUTER_BOUND('',#72,.T.);
#47=FACE_OUTER_BOUND('',#73,.T.);
#48=FACE_OUTER_BOUND('',#74,.T.);
#49=FACE_OUTER_BOUND('',#75,.T.);
#50=FACE_OUTER_BOUND('',#76,.T.);
#51=FACE_OUTER_BOUND('',#77,.T.);
#52=FACE_OUTER_BOUND('',#78,.T.);
#53=FACE_OUTER_BOUND('',#79,.T.);
#54=FACE_OUTER_BOUND('',#80,.T.);
#55=FACE_OUTER_BOUND('',#81,.T.);
#56=FACE_OUTER_BOUND('',#82,.T.);
#57=FACE_OUTER_BOUND('',#83,.T.);
#58=FACE_OUTER_BOUND('',#84,.T.);
#59=FACE_OUTER_BOUND('',#85,.T.);
#60=FACE_OUTER_BOUND('',#86,.T.);
#61=FACE_OUTER_BOUND('',#87,.T.);
#62=EDGE_LOOP('',(#270,#271,#272,#273,#274,#275,#276,#277,#278,#279,#280));
#63=EDGE_LOOP('',(#281,#282,#283,#284));
#64=EDGE_LOOP('',(#285));
#65=EDGE_LOOP('',(#286));
#66=EDGE_LOOP('',(#287));
#67=EDGE_LOOP('',(#288));
#68=EDGE_LOOP('',(#289,#290,#291,#292));
#69=EDGE_LOOP('',(#293,#294,#295,#296));
#70=EDGE_LOOP('',(#297,#298,#299,#300));
#71=EDGE_LOOP('',(#301,#302,#303,#304));
#72=EDGE_LOOP('',(#305,#306,#307,#308));
#73=EDGE_LOOP('',(#309,#310,#311,#312));
#74=EDGE_LOOP('',(#313,#314,#315,#316));
#75=EDGE_LOOP('',(#317,#318,#319,#320));
#76=EDGE_LOOP('',(#321,#322,#323,#324));
#77=EDGE_LOOP('',(#325,#326,#327,#328));
#78=EDGE_LOOP('',(#329,#330,#331,#332));
#79=EDGE_LOOP('',(#333,#334,#335,#336));
#80=EDGE_LOOP('',(#337,#338,#339,#340));
#81=EDGE_LOOP('',(#341,#342,#343,#344));
#82=EDGE_LOOP('',(#345,#346,#347,#348));
#83=EDGE_LOOP('',(#349,#350,#351,#352));
#84=EDGE_LOOP('',(#353,#354,#355,#356));
#85=EDGE_LOOP('',(#357,#358,#359,#360));
#86=EDGE_LOOP('',(#361,#362,#363,#364));
#87=EDGE_LOOP('',(#365,#366,#367,#368,#369,#370,#371,#372,#373,#374,#375));
#88=EDGE_LOOP('',(#376,#377,#378,#379));
#89=EDGE_LOOP('',(#380));
#90=EDGE_LOOP('',(#381));
#91=EDGE_LOOP('',(#382));
#92=EDGE_LOOP('',(#383));
#93=LINE('',#616,#118);
#94=LINE('',#620,#119);
#95=LINE('',#632,#120);
#96=LINE('',#652,#121);
#97=LINE('',#655,#122);
#98=LINE('',#658,#123);
#99=LINE('',#662,#124);
#100=LINE('',#665,#125);
#101=LINE('',#668,#126);
#102=LINE('',#669,#127);
#103=LINE('',#672,#128);
#104=LINE('',#676,#129);
#105=LINE('',#677,#130);
#106=LINE('',#680,#131);
#107=LINE('',#684,#132);
#108=LINE('',#688,#133);
#109=LINE('',#692,#134);
#110=LINE('',#696,#135);
#111=LINE('',#703,#136);
#112=LINE('',#706,#137);
#113=LINE('',#710,#138);
#114=LINE('',#711,#139);
#115=LINE('',#714,#140);
#116=LINE('',#718,#141);
#117=LINE('',#722,#142);
#118=VECTOR('',#483,10.);
#119=VECTOR('',#486,10.);
#120=VECTOR('',#497,10.);
#121=VECTOR('',#518,10.);
#122=VECTOR('',#521,10.);
#123=VECTOR('',#524,10.);
#124=VECTOR('',#529,10.);
#125=VECTOR('',#532,10.);
#126=VECTOR('',#535,10.);
#127=VECTOR('',#536,10.);
#128=VECTOR('',#539,10.);
#129=VECTOR('',#544,10.);
#130=VECTOR('',#545,10.);
#131=VECTOR('',#548,10.);
#132=VECTOR('',#553,4.);
#133=VECTOR('',#558,4.);
#134=VECTOR('',#563,4.);
#135=VECTOR('',#568,10.);
#136=VECTOR('',#579,10.5);
#137=VECTOR('',#582,10.);
#138=VECTOR('',#587,10.);
#139=VECTOR('',#588,10.);
#140=VECTOR('',#591,10.);
#141=VECTOR('',#596,10.);
#142=VECTOR('',#601,10.);
#143=CIRCLE('',#425,39.9999999999999);
#144=CIRCLE('',#426,10.);
#145=CIRCLE('',#427,9.99999999999998);
#146=CIRCLE('',#428,44.9999999999999);
#147=CIRCLE('',#429,40.0000000000013);
#148=CIRCLE('',#430,76.9872260476987);
#149=CIRCLE('',#431,70.0000000000002);
#150=CIRCLE('',#432,64.4169436413652);
#151=CIRCLE('',#433,46.0000000000017);
#152=CIRCLE('',#434,4.62499999998015);
#153=CIRCLE('',#435,55.2499999999619);
#154=CIRCLE('',#436,4.62499999996291);
#155=CIRCLE('',#437,10.5);
#156=CIRCLE('',#438,4.);
#157=CIRCLE('',#439,4.);
#158=CIRCLE('',#440,4.);
#159=CIRCLE('',#442,4.62499999998015);
#160=CIRCLE('',#444,46.0000000000017);
#161=CIRCLE('',#446,9.99999999999998);
#162=CIRCLE('',#449,10.);
#163=CIRCLE('',#452,39.9999999999999);
#164=CIRCLE('',#454,4.);
#165=CIRCLE('',#456,4.);
#166=CIRCLE('',#458,4.);
#167=CIRCLE('',#460,4.62499999996291);
#168=CIRCLE('',#462,55.2499999999619);
#169=CIRCLE('',#464,10.5);
#170=CIRCLE('',#466,64.4169436413652);
#171=CIRCLE('',#469,70.0000000000002);
#172=CIRCLE('',#471,76.9872260476987);
#173=CIRCLE('',#473,40.0000000000013);
#174=CIRCLE('',#475,44.9999999999999);
#175=VERTEX_POINT('',#612);
#176=VERTEX_POINT('',#613);
#177=VERTEX_POINT('',#615);
#178=VERTEX_POINT('',#617);
#179=VERTEX_POINT('',#619);
#180=VERTEX_POINT('',#621);
#181=VERTEX_POINT('',#623);
#182=VERTEX_POINT('',#625);
#183=VERTEX_POINT('',#627);
#184=VERTEX_POINT('',#629);
#185=VERTEX_POINT('',#631);
#186=VERTEX_POINT('',#634);
#187=VERTEX_POINT('',#635);
#188=VERTEX_POINT('',#637);
#189=VERTEX_POINT('',#639);
#190=VERTEX_POINT('',#642);
#191=VERTEX_POINT('',#644);
#192=VERTEX_POINT('',#646);
#193=VERTEX_POINT('',#648);
#194=VERTEX_POINT('',#651);
#195=VERTEX_POINT('',#653);
#196=VERTEX_POINT('',#657);
#197=VERTEX_POINT('',#661);
#198=VERTEX_POINT('',#663);
#199=VERTEX_POINT('',#667);
#200=VERTEX_POINT('',#671);
#201=VERTEX_POINT('',#675);
#202=VERTEX_POINT('',#679);
#203=VERTEX_POINT('',#683);
#204=VERTEX_POINT('',#687);
#205=VERTEX_POINT('',#691);
#206=VERTEX_POINT('',#695);
#207=VERTEX_POINT('',#701);
#208=VERTEX_POINT('',#705);
#209=VERTEX_POINT('',#709);
#210=VERTEX_POINT('',#713);
#211=VERTEX_POINT('',#717);
#212=VERTEX_POINT('',#721);
#213=EDGE_CURVE('',#175,#176,#143,.T.);
#214=EDGE_CURVE('',#177,#175,#93,.T.);
#215=EDGE_CURVE('',#178,#177,#144,.T.);
#216=EDGE_CURVE('',#179,#178,#94,.T.);
#217=EDGE_CURVE('',#180,#179,#145,.T.);
#218=EDGE_CURVE('',#181,#180,#146,.T.);
#219=EDGE_CURVE('',#182,#181,#147,.T.);
#220=EDGE_CURVE('',#183,#182,#148,.T.);
#221=EDGE_CURVE('',#184,#183,#149,.T.);
#222=EDGE_CURVE('',#185,#184,#95,.T.);
#223=EDGE_CURVE('',#176,#185,#150,.T.);
#224=EDGE_CURVE('',#186,#187,#151,.T.);
#225=EDGE_CURVE('',#188,#186,#152,.T.);
#226=EDGE_CURVE('',#189,#188,#153,.T.);
#227=EDGE_CURVE('',#187,#189,#154,.T.);
#228=EDGE_CURVE('',#190,#190,#155,.T.);
#229=EDGE_CURVE('',#191,#191,#156,.T.);
#230=EDGE_CURVE('',#192,#192,#157,.T.);
#231=EDGE_CURVE('',#193,#193,#158,.T.);
#232=EDGE_CURVE('',#194,#186,#96,.T.);
#233=EDGE_CURVE('',#194,#195,#159,.T.);
#234=EDGE_CURVE('',#195,#188,#97,.T.);
#235=EDGE_CURVE('',#196,#187,#98,.T.);
#236=EDGE_CURVE('',#194,#196,#160,.T.);
#237=EDGE_CURVE('',#197,#179,#99,.T.);
#238=EDGE_CURVE('',#198,#197,#161,.T.);
#239=EDGE_CURVE('',#198,#180,#100,.T.);
#240=EDGE_CURVE('',#199,#178,#101,.T.);
#241=EDGE_CURVE('',#197,#199,#102,.T.);
#242=EDGE_CURVE('',#200,#177,#103,.T.);
#243=EDGE_CURVE('',#199,#200,#162,.T.);
#244=EDGE_CURVE('',#201,#175,#104,.T.);
#245=EDGE_CURVE('',#201,#200,#105,.T.);
#246=EDGE_CURVE('',#202,#176,#106,.T.);
#247=EDGE_CURVE('',#202,#201,#163,.T.);
#248=EDGE_CURVE('',#193,#203,#107,.T.);
#249=EDGE_CURVE('',#203,#203,#164,.T.);
#250=EDGE_CURVE('',#192,#204,#108,.T.);
#251=EDGE_CURVE('',#204,#204,#165,.T.);
#252=EDGE_CURVE('',#191,#205,#109,.T.);
#253=EDGE_CURVE('',#205,#205,#166,.T.);
#254=EDGE_CURVE('',#206,#189,#110,.T.);
#255=EDGE_CURVE('',#206,#196,#167,.T.);
#256=EDGE_CURVE('',#195,#206,#168,.T.);
#257=EDGE_CURVE('',#207,#207,#169,.T.);
#258=EDGE_CURVE('',#207,#190,#111,.T.);
#259=EDGE_CURVE('',#208,#185,#112,.T.);
#260=EDGE_CURVE('',#202,#208,#170,.T.);
#261=EDGE_CURVE('',#209,#184,#113,.T.);
#262=EDGE_CURVE('',#209,#208,#114,.T.);
#263=EDGE_CURVE('',#210,#183,#115,.T.);
#264=EDGE_CURVE('',#209,#210,#171,.T.);
#265=EDGE_CURVE('',#211,#182,#116,.T.);
#266=EDGE_CURVE('',#210,#211,#172,.T.);
#267=EDGE_CURVE('',#212,#181,#117,.T.);
#268=EDGE_CURVE('',#212,#211,#173,.T.);
#269=EDGE_CURVE('',#198,#212,#174,.T.);
#270=ORIENTED_EDGE('',*,*,#213,.F.);
#271=ORIENTED_EDGE('',*,*,#214,.F.);
#272=ORIENTED_EDGE('',*,*,#215,.F.);
#273=ORIENTED_EDGE('',*,*,#216,.F.);
#274=ORIENTED_EDGE('',*,*,#217,.F.);
#275=ORIENTED_EDGE('',*,*,#218,.F.);
#276=ORIENTED_EDGE('',*,*,#219,.F.);
#277=ORIENTED_EDGE('',*,*,#220,.F.);
#278=ORIENTED_EDGE('',*,*,#221,.F.);
#279=ORIENTED_EDGE('',*,*,#222,.F.);
#280=ORIENTED_EDGE('',*,*,#223,.F.);
#281=ORIENTED_EDGE('',*,*,#224,.F.);
#282=ORIENTED_EDGE('',*,*,#225,.F.);
#283=ORIENTED_EDGE('',*,*,#226,.F.);
#284=ORIENTED_EDGE('',*,*,#227,.F.);
#285=ORIENTED_EDGE('',*,*,#228,.F.);
#286=ORIENTED_EDGE('',*,*,#229,.F.);
#287=ORIENTED_EDGE('',*,*,#230,.F.);
#288=ORIENTED_EDGE('',*,*,#231,.F.);
#289=ORIENTED_EDGE('',*,*,#225,.T.);
#290=ORIENTED_EDGE('',*,*,#232,.F.);
#291=ORIENTED_EDGE('',*,*,#233,.T.);
#292=ORIENTED_EDGE('',*,*,#234,.T.);
#293=ORIENTED_EDGE('',*,*,#224,.T.);
#294=ORIENTED_EDGE('',*,*,#235,.F.);
#295=ORIENTED_EDGE('',*,*,#236,.F.);
#296=ORIENTED_EDGE('',*,*,#232,.T.);
#297=ORIENTED_EDGE('',*,*,#217,.T.);
#298=ORIENTED_EDGE('',*,*,#237,.F.);
#299=ORIENTED_EDGE('',*,*,#238,.F.);
#300=ORIENTED_EDGE('',*,*,#239,.T.);
#301=ORIENTED_EDGE('',*,*,#216,.T.);
#302=ORIENTED_EDGE('',*,*,#240,.F.);
#303=ORIENTED_EDGE('',*,*,#241,.F.);
#304=ORIENTED_EDGE('',*,*,#237,.T.);
#305=ORIENTED_EDGE('',*,*,#215,.T.);
#306=ORIENTED_EDGE('',*,*,#242,.F.);
#307=ORIENTED_EDGE('',*,*,#243,.F.);
#308=ORIENTED_EDGE('',*,*,#240,.T.);
#309=ORIENTED_EDGE('',*,*,#214,.T.);
#310=ORIENTED_EDGE('',*,*,#244,.F.);
#311=ORIENTED_EDGE('',*,*,#245,.T.);
#312=ORIENTED_EDGE('',*,*,#242,.T.);
#313=ORIENTED_EDGE('',*,*,#213,.T.);
#314=ORIENTED_EDGE('',*,*,#246,.F.);
#315=ORIENTED_EDGE('',*,*,#247,.T.);
#316=ORIENTED_EDGE('',*,*,#244,.T.);
#317=ORIENTED_EDGE('',*,*,#231,.T.);
#318=ORIENTED_EDGE('',*,*,#248,.T.);
#319=ORIENTED_EDGE('',*,*,#249,.F.);
#320=ORIENTED_EDGE('',*,*,#248,.F.);
#321=ORIENTED_EDGE('',*,*,#230,.T.);
#322=ORIENTED_EDGE('',*,*,#250,.T.);
#323=ORIENTED_EDGE('',*,*,#251,.F.);
#324=ORIENTED_EDGE('',*,*,#250,.F.);
#325=ORIENTED_EDGE('',*,*,#229,.T.);
#326=ORIENTED_EDGE('',*,*,#252,.T.);
#327=ORIENTED_EDGE('',*,*,#253,.F.);
#328=ORIENTED_EDGE('',*,*,#252,.F.);
#329=ORIENTED_EDGE('',*,*,#227,.T.);
#330=ORIENTED_EDGE('',*,*,#254,.F.);
#331=ORIENTED_EDGE('',*,*,#255,.T.);
#332=ORIENTED_EDGE('',*,*,#235,.T.);
#333=ORIENTED_EDGE('',*,*,#226,.T.);
#334=ORIENTED_EDGE('',*,*,#234,.F.);
#335=ORIENTED_EDGE('',*,*,#256,.T.);
#336=ORIENTED_EDGE('',*,*,#254,.T.);
#337=ORIENTED_EDGE('',*,*,#257,.T.);
#338=ORIENTED_EDGE('',*,*,#258,.T.);
#339=ORIENTED_EDGE('',*,*,#228,.T.);
#340=ORIENTED_EDGE('',*,*,#258,.F.);
#341=ORIENTED_EDGE('',*,*,#223,.T.);
#342=ORIENTED_EDGE('',*,*,#259,.F.);
#343=ORIENTED_EDGE('',*,*,#260,.F.);
#344=ORIENTED_EDGE('',*,*,#246,.T.);
#345=ORIENTED_EDGE('',*,*,#222,.T.);
#346=ORIENTED_EDGE('',*,*,#261,.F.);
#347=ORIENTED_EDGE('',*,*,#262,.T.);
#348=ORIENTED_EDGE('',*,*,#259,.T.);
#349=ORIENTED_EDGE('',*,*,#221,.T.);
#350=ORIENTED_EDGE('',*,*,#263,.F.);
#351=ORIENTED_EDGE('',*,*,#264,.F.);
#352=ORIENTED_EDGE('',*,*,#261,.T.);
#353=ORIENTED_EDGE('',*,*,#220,.T.);
#354=ORIENTED_EDGE('',*,*,#265,.F.);
#355=ORIENTED_EDGE('',*,*,#266,.F.);
#356=ORIENTED_EDGE('',*,*,#263,.T.);
#357=ORIENTED_EDGE('',*,*,#219,.T.);
#358=ORIENTED_EDGE('',*,*,#267,.F.);
#359=ORIENTED_EDGE('',*,*,#268,.T.);
#360=ORIENTED_EDGE('',*,*,#265,.T.);
#361=ORIENTED_EDGE('',*,*,#218,.T.);
#362=ORIENTED_EDGE('',*,*,#239,.F.);
#363=ORIENTED_EDGE('',*,*,#269,.T.);
#364=ORIENTED_EDGE('',*,*,#267,.T.);
#365=ORIENTED_EDGE('',*,*,#247,.F.);
#366=ORIENTED_EDGE('',*,*,#260,.T.);
#367=ORIENTED_EDGE('',*,*,#262,.F.);
#368=ORIENTED_EDGE('',*,*,#264,.T.);
#369=ORIENTED_EDGE('',*,*,#266,.T.);
#370=ORIENTED_EDGE('',*,*,#268,.F.);
#371=ORIENTED_EDGE('',*,*,#269,.F.);
#372=ORIENTED_EDGE('',*,*,#238,.T.);
#373=ORIENTED_EDGE('',*,*,#241,.T.);
#374=ORIENTED_EDGE('',*,*,#243,.T.);
#375=ORIENTED_EDGE('',*,*,#245,.F.);
#376=ORIENTED_EDGE('',*,*,#236,.T.);
#377=ORIENTED_EDGE('',*,*,#255,.F.);
#378=ORIENTED_EDGE('',*,*,#256,.F.);
#379=ORIENTED_EDGE('',*,*,#233,.F.);
#380=ORIENTED_EDGE('',*,*,#257,.F.);
#381=ORIENTED_EDGE('',*,*,#253,.T.);
#382=ORIENTED_EDGE('',*,*,#251,.T.);
#383=ORIENTED_EDGE('',*,*,#249,.T.);
#384=PLANE('',#424);
#385=PLANE('',#447);
#386=PLANE('',#450);
#387=PLANE('',#467);
#388=PLANE('',#476);
#389=ADVANCED_FACE('',(#41,#31,#32,#33,#34,#35),#384,.F.);
#390=ADVANCED_FACE('',(#42),#15,.F.);
#391=ADVANCED_FACE('',(#43),#16,.T.);
#392=ADVANCED_FACE('',(#44),#17,.T.);
#393=ADVANCED_FACE('',(#45),#385,.T.);
#394=ADVANCED_FACE('',(#46),#18,.T.);
#395=ADVANCED_FACE('',(#47),#386,.T.);
#396=ADVANCED_FACE('',(#48),#19,.F.);
#397=ADVANCED_FACE('',(#49),#20,.F.);
#398=ADVANCED_FACE('',(#50),#21,.F.);
#399=ADVANCED_FACE('',(#51),#22,.F.);
#400=ADVANCED_FACE('',(#52),#23,.F.);
#401=ADVANCED_FACE('',(#53),#24,.F.);
#402=ADVANCED_FACE('',(#54),#25,.F.);
#403=ADVANCED_FACE('',(#55),#26,.T.);
#404=ADVANCED_FACE('',(#56),#387,.T.);
#405=ADVANCED_FACE('',(#57),#27,.T.);
#406=ADVANCED_FACE('',(#58),#28,.T.);
#407=ADVANCED_FACE('',(#59),#29,.F.);
#408=ADVANCED_FACE('',(#60),#30,.F.);
#409=ADVANCED_FACE('',(#61,#36,#37,#38,#39,#40),#388,.T.);
#410=CLOSED_SHELL('',(#389,#390,#391,#392,#393,#394,#395,#396,#397,#398,
#399,#400,#401,#402,#403,#404,#405,#406,#407,#408,#409));
#411=DERIVED_UNIT_ELEMENT(#413,1.);
#412=DERIVED_UNIT_ELEMENT(#732,-3.);
#413=(
MASS_UNIT()
NAMED_UNIT(*)
SI_UNIT(.KILO.,.GRAM.)
);
#414=DERIVED_UNIT((#411,#412));
#415=MEASURE_REPRESENTATION_ITEM('density measure',
POSITIVE_RATIO_MEASURE(7850.),#414);
#416=PROPERTY_DEFINITION_REPRESENTATION(#421,#418);
#417=PROPERTY_DEFINITION_REPRESENTATION(#422,#419);
#418=REPRESENTATION('material name',(#420),#729);
#419=REPRESENTATION('density',(#415),#729);
#420=DESCRIPTIVE_REPRESENTATION_ITEM('Steel','Steel');
#421=PROPERTY_DEFINITION('material property','material name',#739);
#422=PROPERTY_DEFINITION('material property','density of part',#739);
#423=AXIS2_PLACEMENT_3D('',#610,#477,#478);
#424=AXIS2_PLACEMENT_3D('',#611,#479,#480);
#425=AXIS2_PLACEMENT_3D('',#614,#481,#482);
#426=AXIS2_PLACEMENT_3D('',#618,#484,#485);
#427=AXIS2_PLACEMENT_3D('',#622,#487,#488);
#428=AXIS2_PLACEMENT_3D('',#624,#489,#490);
#429=AXIS2_PLACEMENT_3D('',#626,#491,#492);
#430=AXIS2_PLACEMENT_3D('',#628,#493,#494);
#431=AXIS2_PLACEMENT_3D('',#630,#495,#496);
#432=AXIS2_PLACEMENT_3D('',#633,#498,#499);
#433=AXIS2_PLACEMENT_3D('',#636,#500,#501);
#434=AXIS2_PLACEMENT_3D('',#638,#502,#503);
#435=AXIS2_PLACEMENT_3D('',#640,#504,#505);
#436=AXIS2_PLACEMENT_3D('',#641,#506,#507);
#437=AXIS2_PLACEMENT_3D('',#643,#508,#509);
#438=AXIS2_PLACEMENT_3D('',#645,#510,#511);
#439=AXIS2_PLACEMENT_3D('',#647,#512,#513);
#440=AXIS2_PLACEMENT_3D('',#649,#514,#515);
#441=AXIS2_PLACEMENT_3D('',#650,#516,#517);
#442=AXIS2_PLACEMENT_3D('',#654,#519,#520);
#443=AXIS2_PLACEMENT_3D('',#656,#522,#523);
#444=AXIS2_PLACEMENT_3D('',#659,#525,#526);
#445=AXIS2_PLACEMENT_3D('',#660,#527,#528);
#446=AXIS2_PLACEMENT_3D('',#664,#530,#531);
#447=AXIS2_PLACEMENT_3D('',#666,#533,#534);
#448=AXIS2_PLACEMENT_3D('',#670,#537,#538);
#449=AXIS2_PLACEMENT_3D('',#673,#540,#541);
#450=AXIS2_PLACEMENT_3D('',#674,#542,#543);
#451=AXIS2_PLACEMENT_3D('',#678,#546,#547);
#452=AXIS2_PLACEMENT_3D('',#681,#549,#550);
#453=AXIS2_PLACEMENT_3D('',#682,#551,#552);
#454=AXIS2_PLACEMENT_3D('',#685,#554,#555);
#455=AXIS2_PLACEMENT_3D('',#686,#556,#557);
#456=AXIS2_PLACEMENT_3D('',#689,#559,#560);
#457=AXIS2_PLACEMENT_3D('',#690,#561,#562);
#458=AXIS2_PLACEMENT_3D('',#693,#564,#565);
#459=AXIS2_PLACEMENT_3D('',#694,#566,#567);
#460=AXIS2_PLACEMENT_3D('',#697,#569,#570);
#461=AXIS2_PLACEMENT_3D('',#698,#571,#572);
#462=AXIS2_PLACEMENT_3D('',#699,#573,#574);
#463=AXIS2_PLACEMENT_3D('',#700,#575,#576);
#464=AXIS2_PLACEMENT_3D('',#702,#577,#578);
#465=AXIS2_PLACEMENT_3D('',#704,#580,#581);
#466=AXIS2_PLACEMENT_3D('',#707,#583,#584);
#467=AXIS2_PLACEMENT_3D('',#708,#585,#586);
#468=AXIS2_PLACEMENT_3D('',#712,#589,#590);
#469=AXIS2_PLACEMENT_3D('',#715,#592,#593);
#470=AXIS2_PLACEMENT_3D('',#716,#594,#595);
#471=AXIS2_PLACEMENT_3D('',#719,#597,#598);
#472=AXIS2_PLACEMENT_3D('',#720,#599,#600);
#473=AXIS2_PLACEMENT_3D('',#723,#602,#603);
#474=AXIS2_PLACEMENT_3D('',#724,#604,#605);
#475=AXIS2_PLACEMENT_3D('',#725,#606,#607);
#476=AXIS2_PLACEMENT_3D('',#726,#608,#609);
#477=DIRECTION('axis',(0.,0.,1.));
#478=DIRECTION('refdir',(1.,0.,0.));
#479=DIRECTION('center_axis',(5.84254866708987E-15,-1.08824165208123E-15,
-1.));
#480=DIRECTION('ref_axis',(1.,-1.29724449119499E-30,5.84254866708987E-15));
#481=DIRECTION('center_axis',(-5.84254866708987E-15,1.08824165208123E-15,
1.));
#482=DIRECTION('ref_axis',(0.317906746155527,-0.948121986217388,2.60683835203223E-15));
#483=DIRECTION('',(1.,7.08974987174167E-17,5.84254866708987E-15));
#484=DIRECTION('center_axis',(5.84254866708987E-15,-1.08824165208123E-15,
-1.));
#485=DIRECTION('ref_axis',(-1.,1.57478296145821E-30,-5.55111496215648E-15));
#486=DIRECTION('',(-1.66533453693772E-15,1.,-1.08824165208124E-15));
#487=DIRECTION('center_axis',(5.84254866708987E-15,-1.08824165208123E-15,
-1.));
#488=DIRECTION('ref_axis',(-0.540517548494143,-0.841332740222251,-2.25322149418715E-15));
#489=DIRECTION('center_axis',(-5.84254866708987E-15,1.08824165208123E-15,
1.));
#490=DIRECTION('ref_axis',(0.540517548494146,0.841332740222249,2.25322149418717E-15));
#491=DIRECTION('center_axis',(-5.84254866708987E-15,1.08824165208123E-15,
1.));
#492=DIRECTION('ref_axis',(0.660159857126309,0.751125131412184,2.99749015227583E-15));
#493=DIRECTION('center_axis',(5.84254866708987E-15,-1.08824165208123E-15,
-1.));
#494=DIRECTION('ref_axis',(-6.44252202187747E-30,-1.,8.88178387506265E-16));
#495=DIRECTION('center_axis',(5.84254866708987E-15,-1.08824165208123E-15,
-1.));
#496=DIRECTION('ref_axis',(1.,-1.55608960930771E-30,5.55111496215648E-15));
#497=DIRECTION('',(-7.65534930503386E-30,-1.,1.08824165208123E-15));
#498=DIRECTION('center_axis',(5.84254866708987E-15,-1.08824165208123E-15,
-1.));
#499=DIRECTION('ref_axis',(-0.317906746155527,0.948121986217388,-2.60683835203223E-15));
#500=DIRECTION('center_axis',(5.84254866708987E-15,-1.08824165208123E-15,
-1.));
#501=DIRECTION('ref_axis',(0.676363941487127,-0.736567592727238,4.40877741225017E-15));
#502=DIRECTION('center_axis',(-5.84254866708987E-15,1.08824165208123E-15,
1.));
#503=DIRECTION('ref_axis',(-0.984807482377013,-0.173649712508398,-5.31254762862006E-15));
#504=DIRECTION('center_axis',(-5.84254866708987E-15,1.08824165208123E-15,
1.));
#505=DIRECTION('ref_axis',(0.676364037310992,-0.736567504735564,4.40877786602716E-15));
#506=DIRECTION('center_axis',(-5.84254866708987E-15,1.08824165208123E-15,
1.));
#507=DIRECTION('ref_axis',(1.,-1.55608960930771E-30,5.55111496215648E-15));
#508=DIRECTION('center_axis',(-5.84254866708987E-15,1.08824165208123E-15,
1.));
#509=DIRECTION('ref_axis',(1.,-1.55608960930771E-30,5.55111496215648E-15));
#510=DIRECTION('center_axis',(-5.84254866708987E-15,1.08824165208123E-15,
1.));
#511=DIRECTION('ref_axis',(-1.,0.,0.));
#512=DIRECTION('center_axis',(-5.84254866708987E-15,1.08824165208123E-15,
1.));
#513=DIRECTION('ref_axis',(-1.,0.,0.));
#514=DIRECTION('center_axis',(-5.84254866708987E-15,1.08824165208123E-15,
1.));
#515=DIRECTION('ref_axis',(-1.,0.,0.));
#516=DIRECTION('center_axis',(-5.55111496215648E-15,8.88178387506265E-16,
1.));
#517=DIRECTION('ref_axis',(-0.984807482377013,-0.173649712508398,-5.31254762862006E-15));
#518=DIRECTION('',(-5.55111496215648E-15,8.88178387506265E-16,1.));
#519=DIRECTION('center_axis',(5.84254866708987E-15,-1.08824165208123E-15,
-1.));
#520=DIRECTION('ref_axis',(1.,-1.29724449119499E-30,5.84254866708987E-15));
#521=DIRECTION('',(-5.55111496215648E-15,8.88178387506265E-16,1.));
#522=DIRECTION('center_axis',(-5.55111496215648E-15,8.88178387506265E-16,
1.));
#523=DIRECTION('ref_axis',(0.676363941487127,-0.736567592727238,4.40877741225017E-15));
#524=DIRECTION('',(-5.55111496215648E-15,8.88178387506265E-16,1.));
#525=DIRECTION('center_axis',(5.84254866708987E-15,-1.08824165208123E-15,
-1.));
#526=DIRECTION('ref_axis',(1.,-1.29724449119499E-30,5.84254866708987E-15));
#527=DIRECTION('center_axis',(-5.55111496215648E-15,8.88178387506265E-16,
1.));
#528=DIRECTION('ref_axis',(-0.540517548494143,-0.841332740222251,-2.25322149418715E-15));
#529=DIRECTION('',(-5.55111496215648E-15,8.88178387506265E-16,1.));
#530=DIRECTION('center_axis',(5.38485152067799E-15,-1.31023919758825E-15,
-1.));
#531=DIRECTION('ref_axis',(-0.540517548494143,-0.841332740222251,-1.8082596085083E-15));
#532=DIRECTION('',(-5.55111496215648E-15,8.88178387506265E-16,1.));
#533=DIRECTION('center_axis',(-1.,-1.66533453693773E-15,-5.55111496215648E-15));
#534=DIRECTION('ref_axis',(1.66533453693772E-15,-1.,1.20331574691181E-15));
#535=DIRECTION('',(-5.55111496215648E-15,8.88178387506265E-16,1.));
#536=DIRECTION('',(-1.66533453693772E-15,1.,-1.20331574691181E-15));
#537=DIRECTION('center_axis',(-5.55111496215648E-15,8.88178387506265E-16,
1.));
#538=DIRECTION('ref_axis',(-1.,1.57478296145821E-30,-5.55111496215648E-15));
#539=DIRECTION('',(-5.55111496215648E-15,8.88178387506265E-16,1.));
#540=DIRECTION('center_axis',(5.74911146266249E-15,-1.02984339931412E-15,
-1.));
#541=DIRECTION('ref_axis',(-1.,1.3989267489069E-30,-5.74911146266249E-15));
#542=DIRECTION('center_axis',(-7.08974987174115E-17,1.,-8.88178387506266E-16));
#543=DIRECTION('ref_axis',(-1.,-7.08974987174163E-17,-5.45342956190429E-15));
#544=DIRECTION('',(-5.55111496215648E-15,8.88178387506265E-16,1.));
#545=DIRECTION('',(-1.,-7.08974987174163E-17,-5.45342956190429E-15));
#546=DIRECTION('center_axis',(-5.55111496215648E-15,8.88178387506265E-16,
1.));
#547=DIRECTION('ref_axis',(0.317906746155527,-0.948121986217388,2.60683835203223E-15));
#548=DIRECTION('',(-5.55111496215648E-15,8.88178387506265E-16,1.));
#549=DIRECTION('center_axis',(5.23144348776195E-15,1.28047169411387E-15,
-1.));
#550=DIRECTION('ref_axis',(0.317906746155527,-0.948121986217388,4.49067810972537E-16));
#551=DIRECTION('center_axis',(0.,0.,-1.));
#552=DIRECTION('ref_axis',(-1.,0.,0.));
#553=DIRECTION('',(0.,0.,-1.));
#554=DIRECTION('center_axis',(-5.84254866708987E-15,1.08824165208123E-15,
1.));
#555=DIRECTION('ref_axis',(-1.,0.,0.));
#556=DIRECTION('center_axis',(0.,0.,-1.));
#557=DIRECTION('ref_axis',(-1.,0.,0.));
#558=DIRECTION('',(0.,0.,-1.));
#559=DIRECTION('center_axis',(-5.84254866708987E-15,1.08824165208123E-15,
1.));
#560=DIRECTION('ref_axis',(-1.,0.,0.));
#561=DIRECTION('center_axis',(0.,0.,-1.));
#562=DIRECTION('ref_axis',(-1.,0.,0.));
#563=DIRECTION('',(0.,0.,-1.));
#564=DIRECTION('center_axis',(-5.84254866708987E-15,1.08824165208123E-15,
1.));
#565=DIRECTION('ref_axis',(-1.,0.,0.));
#566=DIRECTION('center_axis',(-5.55111496215648E-15,8.88178387506265E-16,
1.));
#567=DIRECTION('ref_axis',(1.,-1.55608960930771E-30,5.55111496215648E-15));
#568=DIRECTION('',(-5.55111496215648E-15,8.88178387506265E-16,1.));
#569=DIRECTION('center_axis',(5.84254866708987E-15,-1.08824165208123E-15,
-1.));
#570=DIRECTION('ref_axis',(1.,-1.29724449119499E-30,5.84254866708987E-15));
#571=DIRECTION('center_axis',(-5.55111496215648E-15,8.88178387506265E-16,
1.));
#572=DIRECTION('ref_axis',(0.676364037310992,-0.736567504735564,4.40877786602716E-15));
#573=DIRECTION('center_axis',(5.84254866708987E-15,-1.08824165208123E-15,
-1.));
#574=DIRECTION('ref_axis',(1.,-1.29724449119499E-30,5.84254866708987E-15));
#575=DIRECTION('center_axis',(-5.55111496215648E-15,8.88178387506265E-16,
1.));
#576=DIRECTION('ref_axis',(1.,-1.55608960930771E-30,5.55111496215648E-15));
#577=DIRECTION('center_axis',(5.84254866708987E-15,-1.08824165208123E-15,
-1.));
#578=DIRECTION('ref_axis',(1.,-1.29724449119499E-30,5.84254866708987E-15));
#579=DIRECTION('',(-5.55111496215648E-15,8.88178387506265E-16,1.));
#580=DIRECTION('center_axis',(-5.55111496215648E-15,8.88178387506265E-16,
1.));
#581=DIRECTION('ref_axis',(-0.317906746155527,0.948121986217388,-2.60683835203223E-15));
#582=DIRECTION('',(-5.55111496215648E-15,8.88178387506265E-16,1.));
#583=DIRECTION('center_axis',(5.84254866708987E-15,-1.08824165208123E-15,
-1.));
#584=DIRECTION('ref_axis',(-0.317906746155527,0.948121986217388,-2.8891714726656E-15));
#585=DIRECTION('center_axis',(1.,-1.61439478772386E-30,5.55111496215648E-15));
#586=DIRECTION('ref_axis',(7.65534930503386E-30,1.,-1.08824165208123E-15));
#587=DIRECTION('',(-5.55111496215648E-15,8.88178387506265E-16,1.));
#588=DIRECTION('',(7.65534930503389E-30,1.,-1.08824165208123E-15));
#589=DIRECTION('center_axis',(-5.55111496215648E-15,8.88178387506265E-16,
1.));
#590=DIRECTION('ref_axis',(1.,-1.55608960930771E-30,5.55111496215648E-15));
#591=DIRECTION('',(-5.55111496215648E-15,8.88178387506265E-16,1.));
#592=DIRECTION('center_axis',(5.84254866708987E-15,-1.08824165208123E-15,
-1.));
#593=DIRECTION('ref_axis',(1.,-1.29724449119499E-30,5.84254866708987E-15));
#594=DIRECTION('center_axis',(-5.55111496215648E-15,8.88178387506265E-16,
1.));
#595=DIRECTION('ref_axis',(-6.44252202187747E-30,-1.,8.88178387506265E-16));
#596=DIRECTION('',(-5.55111496215648E-15,8.88178387506265E-16,1.));
#597=DIRECTION('center_axis',(5.88151045529553E-15,-7.37379345952959E-16,
-1.));
#598=DIRECTION('ref_axis',(-5.60541920603206E-30,-1.,7.37379345952959E-16));
#599=DIRECTION('center_axis',(-5.55111496215648E-15,8.88178387506265E-16,
1.));
#600=DIRECTION('ref_axis',(0.660159857126309,0.751125131412184,2.99749015227583E-15));
#601=DIRECTION('',(-5.55111496215648E-15,8.88178387506265E-16,1.));
#602=DIRECTION('center_axis',(4.38786785136658E-15,-9.69296690048191E-16,
-1.));
#603=DIRECTION('ref_axis',(0.660159857126309,0.751125131412184,2.16863111015744E-15));
#604=DIRECTION('center_axis',(-5.55111496215648E-15,8.88178387506265E-16,
1.));
#605=DIRECTION('ref_axis',(0.540517548494146,0.841332740222249,2.25322149418717E-15));
#606=DIRECTION('center_axis',(5.56499291093359E-15,-1.02984339931412E-15,
-1.));
#607=DIRECTION('ref_axis',(0.540517548494146,0.841332740222249,2.14153535646038E-15));
#608=DIRECTION('center_axis',(5.84254866708987E-15,-1.08824165208123E-15,
-1.));
#609=DIRECTION('ref_axis',(1.,-1.29724449119499E-30,5.84254866708987E-15));
#610=CARTESIAN_POINT('',(0.,0.,0.));
#611=CARTESIAN_POINT('Origin',(34.7092326666222,-138.208471820683,-1.94325791281478));
#612=CARTESIAN_POINT('',(22.2224382287258,-68.4169436413655,-1.94325791281494));
#613=CARTESIAN_POINT('',(34.9387080749469,-66.3418230900611,-1.94325791281487));
#614=CARTESIAN_POINT('Origin',(22.2224382287258,-28.4169436413656,-1.94325791281495));
#615=CARTESIAN_POINT('',(-40.4157673333781,-68.4169436413655,-1.94325791281527));
#616=CARTESIAN_POINT('',(28.465835447674,-68.4169436413655,-1.94325791281489));
#617=CARTESIAN_POINT('',(-50.4157673333781,-78.4169436413655,-1.94325791281533));
#618=CARTESIAN_POINT('Origin',(-40.415767333378,-78.4169436413655,-1.94325791281525));
#619=CARTESIAN_POINT('',(-50.4157673333781,-94.4169436413656,-1.94325791281531));
#620=CARTESIAN_POINT('',(-50.4157673333781,-108.312707731024,-1.94325791281531));
#621=CARTESIAN_POINT('',(-45.8209428183195,-102.830271043588,-1.94325791281527));
#622=CARTESIAN_POINT('Origin',(-40.415767333378,-94.4169436413656,-1.94325791281524));
#623=CARTESIAN_POINT('',(-40.4370389298728,-106.88961344004,-1.94325791281522));
#624=CARTESIAN_POINT('Origin',(-70.144232500556,-140.690244353589,-1.94325791281536));
#625=CARTESIAN_POINT('',(-26.9492773063218,-134.026642709682,-1.94325791281513));
#626=CARTESIAN_POINT('Origin',(-66.843433214926,-136.934618696529,-1.94325791281534));
#627=CARTESIAN_POINT('',(49.8342326666221,-205.416943641366,-1.94325791281463));
#628=CARTESIAN_POINT('Origin',(49.8342326666222,-128.429717593667,-1.9432579128147));
#629=CARTESIAN_POINT('',(119.834232666622,-135.416943641366,-1.9432579128143));
#630=CARTESIAN_POINT('Origin',(49.8342326666223,-135.416943641366,-1.9432579128147));
#631=CARTESIAN_POINT('',(119.834232666622,-127.416943641366,-1.9432579128143));
#632=CARTESIAN_POINT('',(119.834232666622,-136.812707731025,-1.94325791281428));
#633=CARTESIAN_POINT('Origin',(55.4172890252573,-127.416943641366,-1.94325791281467));
#634=CARTESIAN_POINT('',(41.8464164937051,-90.1157870028445,-1.9432579128148));
#635=CARTESIAN_POINT('',(5.37674184503405,-123.604597987275,-1.94325791281496));
#636=CARTESIAN_POINT('Origin',(49.8342326666223,-135.416943641366,-1.9432579128147));
#637=CARTESIAN_POINT('',(40.2401566530113,-81.0063177909073,-1.94325791281481));
#638=CARTESIAN_POINT('Origin',(41.0432936722371,-85.5610511451406,-1.94325791281479));
#639=CARTESIAN_POINT('',(-3.56307966833221,-121.229289310959,-1.94325791281501));
#640=CARTESIAN_POINT('Origin',(49.8342326666223,-135.416943641366,-1.9432579128147));
#641=CARTESIAN_POINT('Origin',(0.90683109041041,-122.416943641366,-1.94325791281498));
#642=CARTESIAN_POINT('',(39.3342326666222,-135.416943641366,-1.94325791281476));
#643=CARTESIAN_POINT('Origin',(49.8342326666223,-135.416943641366,-1.9432579128147));
#644=CARTESIAN_POINT('',(-36.1657673333779,-86.4169436413655,-1.94325791281479));
#645=CARTESIAN_POINT('Origin',(-40.1657673333779,-86.4169436413655,-1.94325791281478));
#646=CARTESIAN_POINT('',(-9.16576733337785,-86.4169436413655,-1.94325791281479));
#647=CARTESIAN_POINT('Origin',(-13.1657673333779,-86.4169436413655,-1.94325791281478));
#648=CARTESIAN_POINT('',(17.8342326666221,-86.4169436413655,-1.94325791281479));
#649=CARTESIAN_POINT('Origin',(13.8342326666221,-86.4169436413655,-1.94325791281478));
#650=CARTESIAN_POINT('Origin',(41.0432936722371,-85.5610511451406,-4.94325814479601));
#651=CARTESIAN_POINT('',(41.8464164937052,-90.1157870028445,-4.94325814479601));
#652=CARTESIAN_POINT('',(41.8464164937052,-90.1157870028445,-4.94325814479601));
#653=CARTESIAN_POINT('',(40.2401566530114,-81.0063177909073,-4.94325814479603));
#654=CARTESIAN_POINT('Origin',(41.0432936722371,-85.5610511451406,-4.94325814479601));
#655=CARTESIAN_POINT('',(40.2401566530114,-81.0063177909073,-4.94325814479603));
#656=CARTESIAN_POINT('Origin',(49.8342326666223,-135.416943641366,-4.94325814479592));
#657=CARTESIAN_POINT('',(5.37674184503406,-123.604597987275,-4.94325814479617));
#658=CARTESIAN_POINT('',(5.37674184503406,-123.604597987275,-4.94325814479617));
#659=CARTESIAN_POINT('Origin',(49.8342326666223,-135.416943641366,-4.94325814479592));
#660=CARTESIAN_POINT('Origin',(-40.415767333378,-94.4169436413656,-4.94325814479647));
#661=CARTESIAN_POINT('',(-50.415767333378,-94.4169436413656,-4.94325814479653));
#662=CARTESIAN_POINT('',(-50.415767333378,-94.4169436413656,-4.94325814479653));
#663=CARTESIAN_POINT('',(-45.8209428183195,-102.830271043588,-4.94325814479649));
#664=CARTESIAN_POINT('Origin',(-40.415767333378,-94.4169436413656,-4.94325814479647));
#665=CARTESIAN_POINT('',(-45.8209428183195,-102.830271043588,-4.94325814479649));
#666=CARTESIAN_POINT('Origin',(-50.4157673333781,-78.4169436413655,-4.94325814479654));
#667=CARTESIAN_POINT('',(-50.4157673333781,-78.4169436413655,-4.94325814479654));
#668=CARTESIAN_POINT('',(-50.4157673333781,-78.4169436413655,-4.94325814479654));
#669=CARTESIAN_POINT('',(-50.415767333378,-94.4169436413656,-4.94325814479653));
#670=CARTESIAN_POINT('Origin',(-40.415767333378,-78.4169436413655,-4.94325814479648));
#671=CARTESIAN_POINT('',(-40.415767333378,-68.4169436413655,-4.94325814479649));
#672=CARTESIAN_POINT('',(-40.415767333378,-68.4169436413655,-4.94325814479649));
#673=CARTESIAN_POINT('Origin',(-40.415767333378,-78.4169436413655,-4.94325814479648));
#674=CARTESIAN_POINT('Origin',(22.2224382287258,-68.4169436413655,-4.94325814479615));
#675=CARTESIAN_POINT('',(22.2224382287258,-68.4169436413655,-4.94325814479615));
#676=CARTESIAN_POINT('',(22.2224382287258,-68.4169436413655,-4.94325814479615));
#677=CARTESIAN_POINT('',(22.2224382287258,-68.4169436413655,-4.94325814479615));
#678=CARTESIAN_POINT('Origin',(22.2224382287258,-28.4169436413656,-4.9432581447961));
#679=CARTESIAN_POINT('',(34.9387080749469,-66.3418230900611,-4.94325814479608));
#680=CARTESIAN_POINT('',(34.9387080749469,-66.3418230900611,-4.94325814479608));
#681=CARTESIAN_POINT('Origin',(22.2224382287258,-28.4169436413656,-4.9432581447961));
#682=CARTESIAN_POINT('Origin',(13.8342326666221,-86.4169436413655,3.05674208718521));
#683=CARTESIAN_POINT('',(17.8342326666221,-86.4169436413655,-4.94325814479599));
#684=CARTESIAN_POINT('',(17.8342326666221,-86.4169436413655,3.05674208718521));
#685=CARTESIAN_POINT('Origin',(13.8342326666221,-86.4169436413655,-4.94325814479599));
#686=CARTESIAN_POINT('Origin',(-13.1657673333779,-86.4169436413655,3.05674208718521));
#687=CARTESIAN_POINT('',(-9.16576733337788,-86.4169436413655,-4.94325814479599));
#688=CARTESIAN_POINT('',(-9.16576733337788,-86.4169436413655,3.05674208718521));
#689=CARTESIAN_POINT('Origin',(-13.1657673333779,-86.4169436413655,-4.94325814479599));
#690=CARTESIAN_POINT('Origin',(-40.1657673333779,-86.4169436413655,3.05674208718521));
#691=CARTESIAN_POINT('',(-36.1657673333779,-86.4169436413655,-4.94325814479599));
#692=CARTESIAN_POINT('',(-36.1657673333779,-86.4169436413655,3.05674208718521));
#693=CARTESIAN_POINT('Origin',(-40.1657673333779,-86.4169436413655,-4.94325814479599));
#694=CARTESIAN_POINT('Origin',(0.906831090410427,-122.416943641366,-4.9432581447962));
#695=CARTESIAN_POINT('',(-3.56307966833219,-121.229289310959,-4.94325814479622));
#696=CARTESIAN_POINT('',(-3.56307966833219,-121.229289310959,-4.94325814479622));
#697=CARTESIAN_POINT('Origin',(0.906831090410427,-122.416943641366,-4.9432581447962));
#698=CARTESIAN_POINT('Origin',(49.8342326666223,-135.416943641366,-4.94325814479592));
#699=CARTESIAN_POINT('Origin',(49.8342326666223,-135.416943641366,-4.94325814479592));
#700=CARTESIAN_POINT('Origin',(49.8342326666223,-135.416943641366,-4.94325814479592));
#701=CARTESIAN_POINT('',(39.3342326666223,-135.416943641366,-4.94325814479598));
#702=CARTESIAN_POINT('Origin',(49.8342326666223,-135.416943641366,-4.94325814479592));
#703=CARTESIAN_POINT('',(39.3342326666223,-135.416943641366,-4.94325814479598));
#704=CARTESIAN_POINT('Origin',(55.4172890252573,-127.416943641366,-4.94325814479589));
#705=CARTESIAN_POINT('',(119.834232666622,-127.416943641366,-4.94325814479551));
#706=CARTESIAN_POINT('',(119.834232666622,-127.416943641366,-4.94325814479551));
#707=CARTESIAN_POINT('Origin',(55.4172890252573,-127.416943641366,-4.94325814479589));
#708=CARTESIAN_POINT('Origin',(119.834232666622,-135.416943641366,-4.94325814479551));
#709=CARTESIAN_POINT('',(119.834232666622,-135.416943641366,-4.94325814479551));
#710=CARTESIAN_POINT('',(119.834232666622,-135.416943641366,-4.94325814479551));
#711=CARTESIAN_POINT('',(119.834232666622,-135.416943641366,-4.94325814479551));
#712=CARTESIAN_POINT('Origin',(49.8342326666223,-135.416943641366,-4.94325814479592));
#713=CARTESIAN_POINT('',(49.8342326666222,-205.416943641366,-4.94325814479584));
#714=CARTESIAN_POINT('',(49.8342326666222,-205.416943641366,-4.94325814479584));
#715=CARTESIAN_POINT('Origin',(49.8342326666223,-135.416943641366,-4.94325814479592));
#716=CARTESIAN_POINT('Origin',(49.8342326666222,-128.429717593667,-4.9432581447959));
#717=CARTESIAN_POINT('',(-26.9492773063217,-134.026642709682,-4.94325814479635));
#718=CARTESIAN_POINT('',(-26.9492773063217,-134.026642709682,-4.94325814479635));
#719=CARTESIAN_POINT('Origin',(49.8342326666222,-128.429717593667,-4.9432581447959));
#720=CARTESIAN_POINT('Origin',(-66.843433214926,-136.934618696529,-4.94325814479653));
#721=CARTESIAN_POINT('',(-40.4370389298728,-106.88961344004,-4.94325814479644));
#722=CARTESIAN_POINT('',(-40.4370389298728,-106.88961344004,-4.94325814479644));
#723=CARTESIAN_POINT('Origin',(-66.843433214926,-136.934618696529,-4.94325814479653));
#724=CARTESIAN_POINT('Origin',(-70.144232500556,-140.690244353589,-4.94325814479658));
#725=CARTESIAN_POINT('Origin',(-70.144232500556,-140.690244353589,-4.94325814479658));
#726=CARTESIAN_POINT('Origin',(34.7092326666222,-138.208471820683,-4.94325814479599));
#727=UNCERTAINTY_MEASURE_WITH_UNIT(LENGTH_MEASURE(0.01),#731,
'DISTANCE_ACCURACY_VALUE',
'Maximum model space distance between geometric entities at asserted c
onnectivities');
#728=UNCERTAINTY_MEASURE_WITH_UNIT(LENGTH_MEASURE(0.01),#731,
'DISTANCE_ACCURACY_VALUE',
'Maximum model space distance between geometric entities at asserted c
onnectivities');
#729=(
GEOMETRIC_REPRESENTATION_CONTEXT(3)
GLOBAL_UNCERTAINTY_ASSIGNED_CONTEXT((#727))
GLOBAL_UNIT_ASSIGNED_CONTEXT((#731,#733,#734))
REPRESENTATION_CONTEXT('','3D')
);
#730=(
GEOMETRIC_REPRESENTATION_CONTEXT(3)
GLOBAL_UNCERTAINTY_ASSIGNED_CONTEXT((#728))
GLOBAL_UNIT_ASSIGNED_CONTEXT((#731,#733,#734))
REPRESENTATION_CONTEXT('','3D')
);
#731=(
LENGTH_UNIT()
NAMED_UNIT(*)
SI_UNIT(.MILLI.,.METRE.)
);
#732=(
LENGTH_UNIT()
NAMED_UNIT(*)
SI_UNIT($,.METRE.)
);
#733=(
NAMED_UNIT(*)
PLANE_ANGLE_UNIT()
SI_UNIT($,.RADIAN.)
);
#734=(
NAMED_UNIT(*)
SI_UNIT($,.STERADIAN.)
SOLID_ANGLE_UNIT()
);
#735=SHAPE_DEFINITION_REPRESENTATION(#736,#737);
#736=PRODUCT_DEFINITION_SHAPE('',$,#739);
#737=SHAPE_REPRESENTATION('',(#423),#729);
#738=PRODUCT_DEFINITION_CONTEXT('part definition',#743,'design');
#739=PRODUCT_DEFINITION('armpit_Shicks_Hinge_Plate_300_LowProfile',
'armpit_Shicks_Hinge_Plate_300_LowProfile v1',#740,#738);
#740=PRODUCT_DEFINITION_FORMATION('',$,#745);
#741=PRODUCT_RELATED_PRODUCT_CATEGORY(
'armpit_Shicks_Hinge_Plate_300_LowProfile v1',
'armpit_Shicks_Hinge_Plate_300_LowProfile v1',(#745));
#742=APPLICATION_PROTOCOL_DEFINITION('international standard',
'automotive_design',2009,#743);
#743=APPLICATION_CONTEXT(
'Core Data for Automotive Mechanical Design Process');
#744=PRODUCT_CONTEXT('part definition',#743,'mechanical');
#745=PRODUCT('armpit_Shicks_Hinge_Plate_300_LowProfile',
'armpit_Shicks_Hinge_Plate_300_LowProfile v1',$,(#744));
#746=PRESENTATION_STYLE_ASSIGNMENT((#748));
#747=PRESENTATION_STYLE_ASSIGNMENT((#749));
#748=SURFACE_STYLE_USAGE(.BOTH.,#750);
#749=SURFACE_STYLE_USAGE(.BOTH.,#751);
#750=SURFACE_SIDE_STYLE('',(#752));
#751=SURFACE_SIDE_STYLE('',(#753));
#752=SURFACE_STYLE_FILL_AREA(#754);
#753=SURFACE_STYLE_FILL_AREA(#755);
#754=FILL_AREA_STYLE('Steel - Satin',(#756));
#755=FILL_AREA_STYLE('Opaque(160,160,160)',(#757));
#756=FILL_AREA_STYLE_COLOUR('Steel - Satin',#758);
#757=FILL_AREA_STYLE_COLOUR('Opaque(160,160,160)',#759);
#758=COLOUR_RGB('Steel - Satin',0.627450980392157,0.627450980392157,0.627450980392157);
#759=COLOUR_RGB('Opaque(160,160,160)',0.627450980392157,0.627450980392157,
0.627450980392157);
ENDSEC;
END-ISO-10303-21;
