ISO-10303-21;
HEADER;
/* Generated by software containing ST-Developer
 * from STEP Tools, Inc. (www.steptools.com) 
 */

FILE_DESCRIPTION(
/* description */ (''),
/* implementation_level */ '2;1');

FILE_NAME(
/* name */ 'CapstanDrum.step',
/* time_stamp */ '2026-07-29T18:21:55+02:00',
/* author */ (''),
/* organization */ (''),
/* preprocessor_version */ 'ST-DEVELOPER v20.1',
/* originating_system */ 'Autodesk Translation Framework v15.8.0.0',
/* authorisation */ '');

FILE_SCHEMA (('AUTOMOTIVE_DESIGN { 1 0 10303 214 3 1 1 }'));
ENDSEC;

DATA;
#10=MECHANICAL_DESIGN_GEOMETRIC_PRESENTATION_REPRESENTATION('',(#13,#14),
#1063);
#11=SHAPE_REPRESENTATION_RELATIONSHIP('SRR','None',#1070,#12);
#12=ADVANCED_BREP_SHAPE_REPRESENTATION('',(#15,#16),#1062);
#13=STYLED_ITEM('',(#1079),#15);
#14=STYLED_ITEM('',(#1079),#16);
#15=MANIFOLD_SOLID_BREP('Body1',#613);
#16=MANIFOLD_SOLID_BREP('Body2',#614);
#17=PLANE('',#636);
#18=PLANE('',#640);
#19=PLANE('',#648);
#20=PLANE('',#650);
#21=PLANE('',#651);
#22=PLANE('',#652);
#23=PLANE('',#653);
#24=PLANE('',#654);
#25=PLANE('',#655);
#26=PLANE('',#662);
#27=PLANE('',#669);
#28=PLANE('',#672);
#29=PLANE('',#674);
#30=PLANE('',#676);
#31=PLANE('',#678);
#32=PLANE('',#679);
#33=PLANE('',#681);
#34=PLANE('',#682);
#35=PLANE('',#684);
#36=PLANE('',#686);
#37=PLANE('',#687);
#38=PLANE('',#688);
#39=PLANE('',#690);
#40=PLANE('',#692);
#41=FACE_BOUND('',#95,.T.);
#42=FACE_BOUND('',#97,.T.);
#43=FACE_BOUND('',#100,.T.);
#44=FACE_BOUND('',#105,.T.);
#45=FACE_BOUND('',#116,.T.);
#46=FACE_BOUND('',#120,.T.);
#47=FACE_BOUND('',#123,.T.);
#48=CYLINDRICAL_SURFACE('',#632,7.15);
#49=CYLINDRICAL_SURFACE('',#644,17.5);
#50=CYLINDRICAL_SURFACE('',#656,10.05);
#51=CYLINDRICAL_SURFACE('',#660,7.05);
#52=CYLINDRICAL_SURFACE('',#667,17.5);
#53=CYLINDRICAL_SURFACE('',#695,4.3);
#54=CYLINDRICAL_SURFACE('',#696,2.7);
#55=FACE_OUTER_BOUND('',#93,.T.);
#56=FACE_OUTER_BOUND('',#94,.T.);
#57=FACE_OUTER_BOUND('',#96,.T.);
#58=FACE_OUTER_BOUND('',#98,.T.);
#59=FACE_OUTER_BOUND('',#99,.T.);
#60=FACE_OUTER_BOUND('',#101,.T.);
#61=FACE_OUTER_BOUND('',#102,.T.);
#62=FACE_OUTER_BOUND('',#103,.T.);
#63=FACE_OUTER_BOUND('',#104,.T.);
#64=FACE_OUTER_BOUND('',#106,.T.);
#65=FACE_OUTER_BOUND('',#107,.T.);
#66=FACE_OUTER_BOUND('',#108,.T.);
#67=FACE_OUTER_BOUND('',#109,.T.);
#68=FACE_OUTER_BOUND('',#110,.T.);
#69=FACE_OUTER_BOUND('',#111,.T.);
#70=FACE_OUTER_BOUND('',#112,.T.);
#71=FACE_OUTER_BOUND('',#113,.T.);
#72=FACE_OUTER_BOUND('',#114,.T.);
#73=FACE_OUTER_BOUND('',#115,.T.);
#74=FACE_OUTER_BOUND('',#117,.T.);
#75=FACE_OUTER_BOUND('',#118,.T.);
#76=FACE_OUTER_BOUND('',#119,.T.);
#77=FACE_OUTER_BOUND('',#121,.T.);
#78=FACE_OUTER_BOUND('',#122,.T.);
#79=FACE_OUTER_BOUND('',#124,.T.);
#80=FACE_OUTER_BOUND('',#125,.T.);
#81=FACE_OUTER_BOUND('',#126,.T.);
#82=FACE_OUTER_BOUND('',#127,.T.);
#83=FACE_OUTER_BOUND('',#128,.T.);
#84=FACE_OUTER_BOUND('',#129,.T.);
#85=FACE_OUTER_BOUND('',#130,.T.);
#86=FACE_OUTER_BOUND('',#131,.T.);
#87=FACE_OUTER_BOUND('',#132,.T.);
#88=FACE_OUTER_BOUND('',#133,.T.);
#89=FACE_OUTER_BOUND('',#134,.T.);
#90=FACE_OUTER_BOUND('',#135,.T.);
#91=FACE_OUTER_BOUND('',#136,.T.);
#92=FACE_OUTER_BOUND('',#137,.T.);
#93=EDGE_LOOP('',(#404,#405,#406,#407,#408));
#94=EDGE_LOOP('',(#409,#410,#411,#412,#413));
#95=EDGE_LOOP('',(#414,#415,#416,#417));
#96=EDGE_LOOP('',(#418));
#97=EDGE_LOOP('',(#419));
#98=EDGE_LOOP('',(#420,#421,#422,#423));
#99=EDGE_LOOP('',(#424));
#100=EDGE_LOOP('',(#425));
#101=EDGE_LOOP('',(#426,#427,#428,#429));
#102=EDGE_LOOP('',(#430,#431,#432,#433));
#103=EDGE_LOOP('',(#434,#435,#436,#437));
#104=EDGE_LOOP('',(#438));
#105=EDGE_LOOP('',(#439));
#106=EDGE_LOOP('',(#440,#441,#442,#443));
#107=EDGE_LOOP('',(#444,#445,#446,#447,#448));
#108=EDGE_LOOP('',(#449,#450,#451,#452));
#109=EDGE_LOOP('',(#453,#454,#455,#456));
#110=EDGE_LOOP('',(#457,#458,#459,#460));
#111=EDGE_LOOP('',(#461,#462,#463,#464,#465));
#112=EDGE_LOOP('',(#466,#467,#468,#469));
#113=EDGE_LOOP('',(#470,#471,#472,#473));
#114=EDGE_LOOP('',(#474,#475,#476,#477));
#115=EDGE_LOOP('',(#478));
#116=EDGE_LOOP('',(#479));
#117=EDGE_LOOP('',(#480,#481,#482,#483));
#118=EDGE_LOOP('',(#484,#485,#486,#487));
#119=EDGE_LOOP('',(#488));
#120=EDGE_LOOP('',(#489));
#121=EDGE_LOOP('',(#490,#491,#492,#493));
#122=EDGE_LOOP('',(#494));
#123=EDGE_LOOP('',(#495));
#124=EDGE_LOOP('',(#496,#497,#498));
#125=EDGE_LOOP('',(#499,#500,#501));
#126=EDGE_LOOP('',(#502,#503,#504,#505,#506));
#127=EDGE_LOOP('',(#507,#508,#509));
#128=EDGE_LOOP('',(#510,#511,#512,#513,#514));
#129=EDGE_LOOP('',(#515,#516,#517));
#130=EDGE_LOOP('',(#518,#519));
#131=EDGE_LOOP('',(#520,#521,#522,#523,#524,#525,#526,#527,#528));
#132=EDGE_LOOP('',(#529,#530,#531,#532,#533,#534,#535,#536,#537));
#133=EDGE_LOOP('',(#538,#539,#540,#541));
#134=EDGE_LOOP('',(#542,#543,#544,#545));
#135=EDGE_LOOP('',(#546,#547,#548));
#136=EDGE_LOOP('',(#549,#550,#551,#552,#553,#554,#555,#556,#557,#558,#559,
#560));
#137=EDGE_LOOP('',(#561,#562,#563,#564,#565,#566,#567));
#138=LINE('',#893,#189);
#139=LINE('',#899,#190);
#140=LINE('',#905,#191);
#141=LINE('',#908,#192);
#142=LINE('',#914,#193);
#143=LINE('',#922,#194);
#144=LINE('',#926,#195);
#145=LINE('',#930,#196);
#146=LINE('',#937,#197);
#147=LINE('',#939,#198);
#148=LINE('',#941,#199);
#149=LINE('',#942,#200);
#150=LINE('',#944,#201);
#151=LINE('',#946,#202);
#152=LINE('',#947,#203);
#153=LINE('',#949,#204);
#154=LINE('',#952,#205);
#155=LINE('',#953,#206);
#156=LINE('',#955,#207);
#157=LINE('',#958,#208);
#158=LINE('',#963,#209);
#159=LINE('',#967,#210);
#160=LINE('',#976,#211);
#161=LINE('',#981,#212);
#162=LINE('',#986,#213);
#163=LINE('',#993,#214);
#164=LINE('',#996,#215);
#165=LINE('',#999,#216);
#166=LINE('',#1002,#217);
#167=LINE('',#1006,#218);
#168=LINE('',#1007,#219);
#169=LINE('',#1009,#220);
#170=LINE('',#1010,#221);
#171=LINE('',#1014,#222);
#172=LINE('',#1018,#223);
#173=LINE('',#1020,#224);
#174=LINE('',#1021,#225);
#175=LINE('',#1022,#226);
#176=LINE('',#1024,#227);
#177=LINE('',#1029,#228);
#178=LINE('',#1033,#229);
#179=LINE('',#1034,#230);
#180=LINE('',#1036,#231);
#181=LINE('',#1037,#232);
#182=LINE('',#1041,#233);
#183=LINE('',#1043,#234);
#184=LINE('',#1044,#235);
#185=LINE('',#1046,#236);
#186=LINE('',#1047,#237);
#187=LINE('',#1057,#238);
#188=LINE('',#1059,#239);
#189=VECTOR('',#703,7.4);
#190=VECTOR('',#710,7.15);
#191=VECTOR('',#715,10.);
#192=VECTOR('',#718,10.);
#193=VECTOR('',#725,7.4);
#194=VECTOR('',#736,17.25);
#195=VECTOR('',#741,17.5);
#196=VECTOR('',#746,17.25);
#197=VECTOR('',#753,10.);
#198=VECTOR('',#754,10.);
#199=VECTOR('',#755,10.);
#200=VECTOR('',#756,10.);
#201=VECTOR('',#759,10.);
#202=VECTOR('',#760,10.);
#203=VECTOR('',#761,10.);
#204=VECTOR('',#764,10.);
#205=VECTOR('',#767,10.);
#206=VECTOR('',#768,10.);
#207=VECTOR('',#771,10.);
#208=VECTOR('',#776,10.05);
#209=VECTOR('',#781,6.8);
#210=VECTOR('',#786,7.15);
#211=VECTOR('',#797,17.25);
#212=VECTOR('',#804,17.5);
#213=VECTOR('',#811,17.25);
#214=VECTOR('',#818,10.);
#215=VECTOR('',#821,10.);
#216=VECTOR('',#824,10.);
#217=VECTOR('',#827,10.);
#218=VECTOR('',#830,10.);
#219=VECTOR('',#831,10.);
#220=VECTOR('',#832,10.);
#221=VECTOR('',#833,10.);
#222=VECTOR('',#838,10.);
#223=VECTOR('',#841,10.);
#224=VECTOR('',#842,10.);
#225=VECTOR('',#843,10.);
#226=VECTOR('',#844,10.);
#227=VECTOR('',#847,10.);
#228=VECTOR('',#852,10.);
#229=VECTOR('',#857,10.);
#230=VECTOR('',#858,10.);
#231=VECTOR('',#859,10.);
#232=VECTOR('',#860,10.);
#233=VECTOR('',#863,10.);
#234=VECTOR('',#864,10.);
#235=VECTOR('',#865,10.);
#236=VECTOR('',#866,10.);
#237=VECTOR('',#867,10.);
#238=VECTOR('',#884,4.3);
#239=VECTOR('',#887,2.7);
#240=CIRCLE('',#629,7.65);
#241=CIRCLE('',#630,7.15);
#242=CIRCLE('',#631,7.15);
#243=CIRCLE('',#633,7.15);
#244=CIRCLE('',#634,7.15);
#245=CIRCLE('',#635,7.15);
#246=CIRCLE('',#637,10.05);
#247=CIRCLE('',#639,7.65);
#248=CIRCLE('',#641,17.);
#249=CIRCLE('',#643,17.5);
#250=CIRCLE('',#645,17.5);
#251=CIRCLE('',#647,17.);
#252=CIRCLE('',#649,10.05);
#253=CIRCLE('',#658,6.55);
#254=CIRCLE('',#659,7.05);
#255=CIRCLE('',#661,7.05);
#256=CIRCLE('',#663,2.7);
#257=CIRCLE('',#665,17.);
#258=CIRCLE('',#666,17.5);
#259=CIRCLE('',#668,17.5);
#260=CIRCLE('',#671,17.);
#261=CIRCLE('',#673,4.3);
#262=CIRCLE('',#675,2.7);
#263=CIRCLE('',#677,2.7);
#264=CIRCLE('',#680,2.7);
#265=CIRCLE('',#683,2.7);
#266=CIRCLE('',#685,4.3);
#267=CIRCLE('',#689,4.3);
#268=CIRCLE('',#691,4.3);
#269=CIRCLE('',#693,4.3);
#270=CIRCLE('',#694,4.3);
#271=VERTEX_POINT('',#890);
#272=VERTEX_POINT('',#892);
#273=VERTEX_POINT('',#894);
#274=VERTEX_POINT('',#898);
#275=VERTEX_POINT('',#901);
#276=VERTEX_POINT('',#902);
#277=VERTEX_POINT('',#904);
#278=VERTEX_POINT('',#906);
#279=VERTEX_POINT('',#910);
#280=VERTEX_POINT('',#913);
#281=VERTEX_POINT('',#917);
#282=VERTEX_POINT('',#920);
#283=VERTEX_POINT('',#924);
#284=VERTEX_POINT('',#928);
#285=VERTEX_POINT('',#932);
#286=VERTEX_POINT('',#935);
#287=VERTEX_POINT('',#936);
#288=VERTEX_POINT('',#938);
#289=VERTEX_POINT('',#940);
#290=VERTEX_POINT('',#945);
#291=VERTEX_POINT('',#951);
#292=VERTEX_POINT('',#960);
#293=VERTEX_POINT('',#962);
#294=VERTEX_POINT('',#966);
#295=VERTEX_POINT('',#970);
#296=VERTEX_POINT('',#973);
#297=VERTEX_POINT('',#975);
#298=VERTEX_POINT('',#979);
#299=VERTEX_POINT('',#984);
#300=VERTEX_POINT('',#988);
#301=VERTEX_POINT('',#991);
#302=VERTEX_POINT('',#992);
#303=VERTEX_POINT('',#994);
#304=VERTEX_POINT('',#998);
#305=VERTEX_POINT('',#1000);
#306=VERTEX_POINT('',#1004);
#307=VERTEX_POINT('',#1005);
#308=VERTEX_POINT('',#1008);
#309=VERTEX_POINT('',#1012);
#310=VERTEX_POINT('',#1016);
#311=VERTEX_POINT('',#1017);
#312=VERTEX_POINT('',#1019);
#313=VERTEX_POINT('',#1027);
#314=VERTEX_POINT('',#1028);
#315=VERTEX_POINT('',#1032);
#316=VERTEX_POINT('',#1035);
#317=VERTEX_POINT('',#1039);
#318=VERTEX_POINT('',#1040);
#319=VERTEX_POINT('',#1042);
#320=VERTEX_POINT('',#1045);
#321=VERTEX_POINT('',#1053);
#322=EDGE_CURVE('',#271,#271,#240,.T.);
#323=EDGE_CURVE('',#271,#272,#138,.T.);
#324=EDGE_CURVE('',#272,#273,#241,.T.);
#325=EDGE_CURVE('',#273,#272,#242,.T.);
#326=EDGE_CURVE('',#273,#274,#139,.T.);
#327=EDGE_CURVE('',#274,#274,#243,.T.);
#328=EDGE_CURVE('',#275,#276,#244,.T.);
#329=EDGE_CURVE('',#276,#277,#140,.T.);
#330=EDGE_CURVE('',#277,#278,#245,.T.);
#331=EDGE_CURVE('',#275,#278,#141,.T.);
#332=EDGE_CURVE('',#279,#279,#246,.T.);
#333=EDGE_CURVE('',#274,#280,#142,.T.);
#334=EDGE_CURVE('',#280,#280,#247,.T.);
#335=EDGE_CURVE('',#281,#281,#248,.T.);
#336=EDGE_CURVE('',#282,#282,#249,.T.);
#337=EDGE_CURVE('',#282,#281,#143,.T.);
#338=EDGE_CURVE('',#283,#283,#250,.T.);
#339=EDGE_CURVE('',#283,#282,#144,.T.);
#340=EDGE_CURVE('',#284,#284,#251,.T.);
#341=EDGE_CURVE('',#284,#283,#145,.T.);
#342=EDGE_CURVE('',#285,#285,#252,.T.);
#343=EDGE_CURVE('',#286,#287,#146,.T.);
#344=EDGE_CURVE('',#287,#288,#147,.T.);
#345=EDGE_CURVE('',#288,#289,#148,.T.);
#346=EDGE_CURVE('',#289,#286,#149,.T.);
#347=EDGE_CURVE('',#286,#275,#150,.T.);
#348=EDGE_CURVE('',#278,#290,#151,.T.);
#349=EDGE_CURVE('',#287,#290,#152,.T.);
#350=EDGE_CURVE('',#276,#289,#153,.T.);
#351=EDGE_CURVE('',#291,#277,#154,.T.);
#352=EDGE_CURVE('',#290,#291,#155,.T.);
#353=EDGE_CURVE('',#288,#291,#156,.T.);
#354=EDGE_CURVE('',#279,#285,#157,.T.);
#355=EDGE_CURVE('',#292,#292,#253,.T.);
#356=EDGE_CURVE('',#292,#293,#158,.T.);
#357=EDGE_CURVE('',#293,#293,#254,.T.);
#358=EDGE_CURVE('',#293,#294,#159,.T.);
#359=EDGE_CURVE('',#294,#294,#255,.F.);
#360=EDGE_CURVE('',#295,#295,#256,.T.);
#361=EDGE_CURVE('',#296,#296,#257,.T.);
#362=EDGE_CURVE('',#296,#297,#160,.T.);
#363=EDGE_CURVE('',#297,#297,#258,.T.);
#364=EDGE_CURVE('',#298,#298,#259,.T.);
#365=EDGE_CURVE('',#298,#297,#161,.T.);
#366=EDGE_CURVE('',#299,#299,#260,.T.);
#367=EDGE_CURVE('',#299,#298,#162,.T.);
#368=EDGE_CURVE('',#300,#300,#261,.T.);
#369=EDGE_CURVE('',#301,#302,#163,.T.);
#370=EDGE_CURVE('',#303,#301,#262,.T.);
#371=EDGE_CURVE('',#302,#303,#164,.T.);
#372=EDGE_CURVE('',#303,#304,#165,.T.);
#373=EDGE_CURVE('',#305,#303,#263,.T.);
#374=EDGE_CURVE('',#304,#305,#166,.T.);
#375=EDGE_CURVE('',#306,#307,#167,.T.);
#376=EDGE_CURVE('',#307,#304,#168,.T.);
#377=EDGE_CURVE('',#305,#308,#169,.T.);
#378=EDGE_CURVE('',#306,#308,#170,.T.);
#379=EDGE_CURVE('',#309,#305,#264,.T.);
#380=EDGE_CURVE('',#308,#309,#171,.T.);
#381=EDGE_CURVE('',#310,#311,#172,.T.);
#382=EDGE_CURVE('',#311,#312,#173,.T.);
#383=EDGE_CURVE('',#312,#301,#174,.T.);
#384=EDGE_CURVE('',#310,#302,#175,.T.);
#385=EDGE_CURVE('',#309,#312,#176,.T.);
#386=EDGE_CURVE('',#301,#309,#265,.T.);
#387=EDGE_CURVE('',#313,#314,#177,.T.);
#388=EDGE_CURVE('',#313,#314,#266,.T.);
#389=EDGE_CURVE('',#313,#315,#178,.T.);
#390=EDGE_CURVE('',#315,#306,#179,.T.);
#391=EDGE_CURVE('',#311,#316,#180,.T.);
#392=EDGE_CURVE('',#314,#316,#181,.T.);
#393=EDGE_CURVE('',#317,#318,#182,.T.);
#394=EDGE_CURVE('',#317,#319,#183,.T.);
#395=EDGE_CURVE('',#319,#310,#184,.T.);
#396=EDGE_CURVE('',#307,#320,#185,.T.);
#397=EDGE_CURVE('',#318,#320,#186,.T.);
#398=EDGE_CURVE('',#320,#315,#267,.T.);
#399=EDGE_CURVE('',#316,#319,#268,.T.);
#400=EDGE_CURVE('',#321,#318,#269,.T.);
#401=EDGE_CURVE('',#317,#321,#270,.T.);
#402=EDGE_CURVE('',#300,#321,#187,.T.);
#403=EDGE_CURVE('',#303,#295,#188,.T.);
#404=ORIENTED_EDGE('',*,*,#322,.T.);
#405=ORIENTED_EDGE('',*,*,#323,.T.);
#406=ORIENTED_EDGE('',*,*,#324,.T.);
#407=ORIENTED_EDGE('',*,*,#325,.T.);
#408=ORIENTED_EDGE('',*,*,#323,.F.);
#409=ORIENTED_EDGE('',*,*,#324,.F.);
#410=ORIENTED_EDGE('',*,*,#325,.F.);
#411=ORIENTED_EDGE('',*,*,#326,.T.);
#412=ORIENTED_EDGE('',*,*,#327,.F.);
#413=ORIENTED_EDGE('',*,*,#326,.F.);
#414=ORIENTED_EDGE('',*,*,#328,.T.);
#415=ORIENTED_EDGE('',*,*,#329,.T.);
#416=ORIENTED_EDGE('',*,*,#330,.T.);
#417=ORIENTED_EDGE('',*,*,#331,.F.);
#418=ORIENTED_EDGE('',*,*,#332,.T.);
#419=ORIENTED_EDGE('',*,*,#322,.F.);
#420=ORIENTED_EDGE('',*,*,#327,.T.);
#421=ORIENTED_EDGE('',*,*,#333,.T.);
#422=ORIENTED_EDGE('',*,*,#334,.T.);
#423=ORIENTED_EDGE('',*,*,#333,.F.);
#424=ORIENTED_EDGE('',*,*,#335,.F.);
#425=ORIENTED_EDGE('',*,*,#334,.F.);
#426=ORIENTED_EDGE('',*,*,#336,.T.);
#427=ORIENTED_EDGE('',*,*,#337,.T.);
#428=ORIENTED_EDGE('',*,*,#335,.T.);
#429=ORIENTED_EDGE('',*,*,#337,.F.);
#430=ORIENTED_EDGE('',*,*,#338,.F.);
#431=ORIENTED_EDGE('',*,*,#339,.T.);
#432=ORIENTED_EDGE('',*,*,#336,.F.);
#433=ORIENTED_EDGE('',*,*,#339,.F.);
#434=ORIENTED_EDGE('',*,*,#340,.T.);
#435=ORIENTED_EDGE('',*,*,#341,.T.);
#436=ORIENTED_EDGE('',*,*,#338,.T.);
#437=ORIENTED_EDGE('',*,*,#341,.F.);
#438=ORIENTED_EDGE('',*,*,#340,.F.);
#439=ORIENTED_EDGE('',*,*,#342,.F.);
#440=ORIENTED_EDGE('',*,*,#343,.T.);
#441=ORIENTED_EDGE('',*,*,#344,.T.);
#442=ORIENTED_EDGE('',*,*,#345,.T.);
#443=ORIENTED_EDGE('',*,*,#346,.T.);
#444=ORIENTED_EDGE('',*,*,#343,.F.);
#445=ORIENTED_EDGE('',*,*,#347,.T.);
#446=ORIENTED_EDGE('',*,*,#331,.T.);
#447=ORIENTED_EDGE('',*,*,#348,.T.);
#448=ORIENTED_EDGE('',*,*,#349,.F.);
#449=ORIENTED_EDGE('',*,*,#346,.F.);
#450=ORIENTED_EDGE('',*,*,#350,.F.);
#451=ORIENTED_EDGE('',*,*,#328,.F.);
#452=ORIENTED_EDGE('',*,*,#347,.F.);
#453=ORIENTED_EDGE('',*,*,#348,.F.);
#454=ORIENTED_EDGE('',*,*,#330,.F.);
#455=ORIENTED_EDGE('',*,*,#351,.F.);
#456=ORIENTED_EDGE('',*,*,#352,.F.);
#457=ORIENTED_EDGE('',*,*,#344,.F.);
#458=ORIENTED_EDGE('',*,*,#349,.T.);
#459=ORIENTED_EDGE('',*,*,#352,.T.);
#460=ORIENTED_EDGE('',*,*,#353,.F.);
#461=ORIENTED_EDGE('',*,*,#345,.F.);
#462=ORIENTED_EDGE('',*,*,#353,.T.);
#463=ORIENTED_EDGE('',*,*,#351,.T.);
#464=ORIENTED_EDGE('',*,*,#329,.F.);
#465=ORIENTED_EDGE('',*,*,#350,.T.);
#466=ORIENTED_EDGE('',*,*,#332,.F.);
#467=ORIENTED_EDGE('',*,*,#354,.T.);
#468=ORIENTED_EDGE('',*,*,#342,.T.);
#469=ORIENTED_EDGE('',*,*,#354,.F.);
#470=ORIENTED_EDGE('',*,*,#355,.T.);
#471=ORIENTED_EDGE('',*,*,#356,.T.);
#472=ORIENTED_EDGE('',*,*,#357,.T.);
#473=ORIENTED_EDGE('',*,*,#356,.F.);
#474=ORIENTED_EDGE('',*,*,#357,.F.);
#475=ORIENTED_EDGE('',*,*,#358,.T.);
#476=ORIENTED_EDGE('',*,*,#359,.F.);
#477=ORIENTED_EDGE('',*,*,#358,.F.);
#478=ORIENTED_EDGE('',*,*,#355,.F.);
#479=ORIENTED_EDGE('',*,*,#360,.T.);
#480=ORIENTED_EDGE('',*,*,#361,.T.);
#481=ORIENTED_EDGE('',*,*,#362,.T.);
#482=ORIENTED_EDGE('',*,*,#363,.T.);
#483=ORIENTED_EDGE('',*,*,#362,.F.);
#484=ORIENTED_EDGE('',*,*,#364,.F.);
#485=ORIENTED_EDGE('',*,*,#365,.T.);
#486=ORIENTED_EDGE('',*,*,#363,.F.);
#487=ORIENTED_EDGE('',*,*,#365,.F.);
#488=ORIENTED_EDGE('',*,*,#361,.F.);
#489=ORIENTED_EDGE('',*,*,#359,.T.);
#490=ORIENTED_EDGE('',*,*,#366,.T.);
#491=ORIENTED_EDGE('',*,*,#367,.T.);
#492=ORIENTED_EDGE('',*,*,#364,.T.);
#493=ORIENTED_EDGE('',*,*,#367,.F.);
#494=ORIENTED_EDGE('',*,*,#366,.F.);
#495=ORIENTED_EDGE('',*,*,#368,.T.);
#496=ORIENTED_EDGE('',*,*,#369,.F.);
#497=ORIENTED_EDGE('',*,*,#370,.F.);
#498=ORIENTED_EDGE('',*,*,#371,.F.);
#499=ORIENTED_EDGE('',*,*,#372,.F.);
#500=ORIENTED_EDGE('',*,*,#373,.F.);
#501=ORIENTED_EDGE('',*,*,#374,.F.);
#502=ORIENTED_EDGE('',*,*,#375,.T.);
#503=ORIENTED_EDGE('',*,*,#376,.T.);
#504=ORIENTED_EDGE('',*,*,#374,.T.);
#505=ORIENTED_EDGE('',*,*,#377,.T.);
#506=ORIENTED_EDGE('',*,*,#378,.F.);
#507=ORIENTED_EDGE('',*,*,#377,.F.);
#508=ORIENTED_EDGE('',*,*,#379,.F.);
#509=ORIENTED_EDGE('',*,*,#380,.F.);
#510=ORIENTED_EDGE('',*,*,#381,.T.);
#511=ORIENTED_EDGE('',*,*,#382,.T.);
#512=ORIENTED_EDGE('',*,*,#383,.T.);
#513=ORIENTED_EDGE('',*,*,#369,.T.);
#514=ORIENTED_EDGE('',*,*,#384,.F.);
#515=ORIENTED_EDGE('',*,*,#383,.F.);
#516=ORIENTED_EDGE('',*,*,#385,.F.);
#517=ORIENTED_EDGE('',*,*,#386,.F.);
#518=ORIENTED_EDGE('',*,*,#387,.T.);
#519=ORIENTED_EDGE('',*,*,#388,.F.);
#520=ORIENTED_EDGE('',*,*,#387,.F.);
#521=ORIENTED_EDGE('',*,*,#389,.T.);
#522=ORIENTED_EDGE('',*,*,#390,.T.);
#523=ORIENTED_EDGE('',*,*,#378,.T.);
#524=ORIENTED_EDGE('',*,*,#380,.T.);
#525=ORIENTED_EDGE('',*,*,#385,.T.);
#526=ORIENTED_EDGE('',*,*,#382,.F.);
#527=ORIENTED_EDGE('',*,*,#391,.T.);
#528=ORIENTED_EDGE('',*,*,#392,.F.);
#529=ORIENTED_EDGE('',*,*,#393,.F.);
#530=ORIENTED_EDGE('',*,*,#394,.T.);
#531=ORIENTED_EDGE('',*,*,#395,.T.);
#532=ORIENTED_EDGE('',*,*,#384,.T.);
#533=ORIENTED_EDGE('',*,*,#371,.T.);
#534=ORIENTED_EDGE('',*,*,#372,.T.);
#535=ORIENTED_EDGE('',*,*,#376,.F.);
#536=ORIENTED_EDGE('',*,*,#396,.T.);
#537=ORIENTED_EDGE('',*,*,#397,.F.);
#538=ORIENTED_EDGE('',*,*,#375,.F.);
#539=ORIENTED_EDGE('',*,*,#390,.F.);
#540=ORIENTED_EDGE('',*,*,#398,.F.);
#541=ORIENTED_EDGE('',*,*,#396,.F.);
#542=ORIENTED_EDGE('',*,*,#395,.F.);
#543=ORIENTED_EDGE('',*,*,#399,.F.);
#544=ORIENTED_EDGE('',*,*,#391,.F.);
#545=ORIENTED_EDGE('',*,*,#381,.F.);
#546=ORIENTED_EDGE('',*,*,#393,.T.);
#547=ORIENTED_EDGE('',*,*,#400,.F.);
#548=ORIENTED_EDGE('',*,*,#401,.F.);
#549=ORIENTED_EDGE('',*,*,#368,.F.);
#550=ORIENTED_EDGE('',*,*,#402,.T.);
#551=ORIENTED_EDGE('',*,*,#400,.T.);
#552=ORIENTED_EDGE('',*,*,#397,.T.);
#553=ORIENTED_EDGE('',*,*,#398,.T.);
#554=ORIENTED_EDGE('',*,*,#389,.F.);
#555=ORIENTED_EDGE('',*,*,#388,.T.);
#556=ORIENTED_EDGE('',*,*,#392,.T.);
#557=ORIENTED_EDGE('',*,*,#399,.T.);
#558=ORIENTED_EDGE('',*,*,#394,.F.);
#559=ORIENTED_EDGE('',*,*,#401,.T.);
#560=ORIENTED_EDGE('',*,*,#402,.F.);
#561=ORIENTED_EDGE('',*,*,#386,.T.);
#562=ORIENTED_EDGE('',*,*,#379,.T.);
#563=ORIENTED_EDGE('',*,*,#373,.T.);
#564=ORIENTED_EDGE('',*,*,#403,.T.);
#565=ORIENTED_EDGE('',*,*,#360,.F.);
#566=ORIENTED_EDGE('',*,*,#403,.F.);
#567=ORIENTED_EDGE('',*,*,#370,.T.);
#568=CONICAL_SURFACE('',#628,7.4,0.785398163397449);
#569=CONICAL_SURFACE('',#638,7.4,0.785398163397448);
#570=CONICAL_SURFACE('',#642,17.25,0.785398163397449);
#571=CONICAL_SURFACE('',#646,17.25,0.785398163397449);
#572=CONICAL_SURFACE('',#657,6.8,0.785398163397451);
#573=CONICAL_SURFACE('',#664,17.25,0.785398163397451);
#574=CONICAL_SURFACE('',#670,17.25,0.785398163397451);
#575=ADVANCED_FACE('',(#55),#568,.F.);
#576=ADVANCED_FACE('',(#56,#41),#48,.F.);
#577=ADVANCED_FACE('',(#57,#42),#17,.T.);
#578=ADVANCED_FACE('',(#58),#569,.F.);
#579=ADVANCED_FACE('',(#59,#43),#18,.F.);
#580=ADVANCED_FACE('',(#60),#570,.T.);
#581=ADVANCED_FACE('',(#61),#49,.T.);
#582=ADVANCED_FACE('',(#62),#571,.T.);
#583=ADVANCED_FACE('',(#63,#44),#19,.T.);
#584=ADVANCED_FACE('',(#64),#20,.T.);
#585=ADVANCED_FACE('',(#65),#21,.T.);
#586=ADVANCED_FACE('',(#66),#22,.F.);
#587=ADVANCED_FACE('',(#67),#23,.T.);
#588=ADVANCED_FACE('',(#68),#24,.T.);
#589=ADVANCED_FACE('',(#69),#25,.T.);
#590=ADVANCED_FACE('',(#70),#50,.T.);
#591=ADVANCED_FACE('',(#71),#572,.T.);
#592=ADVANCED_FACE('',(#72),#51,.T.);
#593=ADVANCED_FACE('',(#73,#45),#26,.F.);
#594=ADVANCED_FACE('',(#74),#573,.T.);
#595=ADVANCED_FACE('',(#75),#52,.T.);
#596=ADVANCED_FACE('',(#76,#46),#27,.F.);
#597=ADVANCED_FACE('',(#77),#574,.T.);
#598=ADVANCED_FACE('',(#78,#47),#28,.T.);
#599=ADVANCED_FACE('',(#79),#29,.T.);
#600=ADVANCED_FACE('',(#80),#30,.T.);
#601=ADVANCED_FACE('',(#81),#31,.F.);
#602=ADVANCED_FACE('',(#82),#32,.T.);
#603=ADVANCED_FACE('',(#83),#33,.F.);
#604=ADVANCED_FACE('',(#84),#34,.T.);
#605=ADVANCED_FACE('',(#85),#35,.F.);
#606=ADVANCED_FACE('',(#86),#36,.F.);
#607=ADVANCED_FACE('',(#87),#37,.F.);
#608=ADVANCED_FACE('',(#88),#38,.T.);
#609=ADVANCED_FACE('',(#89),#39,.T.);
#610=ADVANCED_FACE('',(#90),#40,.F.);
#611=ADVANCED_FACE('',(#91),#53,.F.);
#612=ADVANCED_FACE('',(#92),#54,.F.);
#613=CLOSED_SHELL('',(#575,#576,#577,#578,#579,#580,#581,#582,#583,#584,
#585,#586,#587,#588,#589,#590));
#614=CLOSED_SHELL('',(#591,#592,#593,#594,#595,#596,#597,#598,#599,#600,
#601,#602,#603,#604,#605,#606,#607,#608,#609,#610,#611,#612));
#615=DERIVED_UNIT_ELEMENT(#617,1.);
#616=DERIVED_UNIT_ELEMENT(#1065,-3.);
#617=(
MASS_UNIT()
NAMED_UNIT(*)
SI_UNIT(.KILO.,.GRAM.)
);
#618=DERIVED_UNIT((#615,#616));
#619=MEASURE_REPRESENTATION_ITEM('density measure',
POSITIVE_RATIO_MEASURE(7850.),#618);
#620=PROPERTY_DEFINITION_REPRESENTATION(#625,#622);
#621=PROPERTY_DEFINITION_REPRESENTATION(#626,#623);
#622=REPRESENTATION('material name',(#624),#1062);
#623=REPRESENTATION('density',(#619),#1062);
#624=DESCRIPTIVE_REPRESENTATION_ITEM('Steel','Steel');
#625=PROPERTY_DEFINITION('material property','material name',#1072);
#626=PROPERTY_DEFINITION('material property','density of part',#1072);
#627=AXIS2_PLACEMENT_3D('',#888,#697,#698);
#628=AXIS2_PLACEMENT_3D('',#889,#699,#700);
#629=AXIS2_PLACEMENT_3D('',#891,#701,#702);
#630=AXIS2_PLACEMENT_3D('',#895,#704,#705);
#631=AXIS2_PLACEMENT_3D('',#896,#706,#707);
#632=AXIS2_PLACEMENT_3D('',#897,#708,#709);
#633=AXIS2_PLACEMENT_3D('',#900,#711,#712);
#634=AXIS2_PLACEMENT_3D('',#903,#713,#714);
#635=AXIS2_PLACEMENT_3D('',#907,#716,#717);
#636=AXIS2_PLACEMENT_3D('',#909,#719,#720);
#637=AXIS2_PLACEMENT_3D('',#911,#721,#722);
#638=AXIS2_PLACEMENT_3D('',#912,#723,#724);
#639=AXIS2_PLACEMENT_3D('',#915,#726,#727);
#640=AXIS2_PLACEMENT_3D('',#916,#728,#729);
#641=AXIS2_PLACEMENT_3D('',#918,#730,#731);
#642=AXIS2_PLACEMENT_3D('',#919,#732,#733);
#643=AXIS2_PLACEMENT_3D('',#921,#734,#735);
#644=AXIS2_PLACEMENT_3D('',#923,#737,#738);
#645=AXIS2_PLACEMENT_3D('',#925,#739,#740);
#646=AXIS2_PLACEMENT_3D('',#927,#742,#743);
#647=AXIS2_PLACEMENT_3D('',#929,#744,#745);
#648=AXIS2_PLACEMENT_3D('',#931,#747,#748);
#649=AXIS2_PLACEMENT_3D('',#933,#749,#750);
#650=AXIS2_PLACEMENT_3D('',#934,#751,#752);
#651=AXIS2_PLACEMENT_3D('',#943,#757,#758);
#652=AXIS2_PLACEMENT_3D('',#948,#762,#763);
#653=AXIS2_PLACEMENT_3D('',#950,#765,#766);
#654=AXIS2_PLACEMENT_3D('',#954,#769,#770);
#655=AXIS2_PLACEMENT_3D('',#956,#772,#773);
#656=AXIS2_PLACEMENT_3D('',#957,#774,#775);
#657=AXIS2_PLACEMENT_3D('',#959,#777,#778);
#658=AXIS2_PLACEMENT_3D('',#961,#779,#780);
#659=AXIS2_PLACEMENT_3D('',#964,#782,#783);
#660=AXIS2_PLACEMENT_3D('',#965,#784,#785);
#661=AXIS2_PLACEMENT_3D('',#968,#787,#788);
#662=AXIS2_PLACEMENT_3D('',#969,#789,#790);
#663=AXIS2_PLACEMENT_3D('',#971,#791,#792);
#664=AXIS2_PLACEMENT_3D('',#972,#793,#794);
#665=AXIS2_PLACEMENT_3D('',#974,#795,#796);
#666=AXIS2_PLACEMENT_3D('',#977,#798,#799);
#667=AXIS2_PLACEMENT_3D('',#978,#800,#801);
#668=AXIS2_PLACEMENT_3D('',#980,#802,#803);
#669=AXIS2_PLACEMENT_3D('',#982,#805,#806);
#670=AXIS2_PLACEMENT_3D('',#983,#807,#808);
#671=AXIS2_PLACEMENT_3D('',#985,#809,#810);
#672=AXIS2_PLACEMENT_3D('',#987,#812,#813);
#673=AXIS2_PLACEMENT_3D('',#989,#814,#815);
#674=AXIS2_PLACEMENT_3D('',#990,#816,#817);
#675=AXIS2_PLACEMENT_3D('',#995,#819,#820);
#676=AXIS2_PLACEMENT_3D('',#997,#822,#823);
#677=AXIS2_PLACEMENT_3D('',#1001,#825,#826);
#678=AXIS2_PLACEMENT_3D('',#1003,#828,#829);
#679=AXIS2_PLACEMENT_3D('',#1011,#834,#835);
#680=AXIS2_PLACEMENT_3D('',#1013,#836,#837);
#681=AXIS2_PLACEMENT_3D('',#1015,#839,#840);
#682=AXIS2_PLACEMENT_3D('',#1023,#845,#846);
#683=AXIS2_PLACEMENT_3D('',#1025,#848,#849);
#684=AXIS2_PLACEMENT_3D('',#1026,#850,#851);
#685=AXIS2_PLACEMENT_3D('',#1030,#853,#854);
#686=AXIS2_PLACEMENT_3D('',#1031,#855,#856);
#687=AXIS2_PLACEMENT_3D('',#1038,#861,#862);
#688=AXIS2_PLACEMENT_3D('',#1048,#868,#869);
#689=AXIS2_PLACEMENT_3D('',#1049,#870,#871);
#690=AXIS2_PLACEMENT_3D('',#1050,#872,#873);
#691=AXIS2_PLACEMENT_3D('',#1051,#874,#875);
#692=AXIS2_PLACEMENT_3D('',#1052,#876,#877);
#693=AXIS2_PLACEMENT_3D('',#1054,#878,#879);
#694=AXIS2_PLACEMENT_3D('',#1055,#880,#881);
#695=AXIS2_PLACEMENT_3D('',#1056,#882,#883);
#696=AXIS2_PLACEMENT_3D('',#1058,#885,#886);
#697=DIRECTION('axis',(0.,0.,1.));
#698=DIRECTION('refdir',(1.,0.,0.));
#699=DIRECTION('center_axis',(0.,0.,1.));
#700=DIRECTION('ref_axis',(-1.,0.,0.));
#701=DIRECTION('center_axis',(0.,0.,1.));
#702=DIRECTION('ref_axis',(-1.,0.,0.));
#703=DIRECTION('',(-0.707106781186548,-8.65956056235494E-17,-0.707106781186547));
#704=DIRECTION('center_axis',(0.,0.,-1.));
#705=DIRECTION('ref_axis',(-1.,0.,0.));
#706=DIRECTION('center_axis',(0.,0.,-1.));
#707=DIRECTION('ref_axis',(-1.,0.,0.));
#708=DIRECTION('center_axis',(0.,0.,1.));
#709=DIRECTION('ref_axis',(1.,0.,0.));
#710=DIRECTION('',(0.,0.,-1.));
#711=DIRECTION('center_axis',(0.,0.,1.));
#712=DIRECTION('ref_axis',(1.,0.,0.));
#713=DIRECTION('center_axis',(0.,0.,1.));
#714=DIRECTION('ref_axis',(1.,0.,0.));
#715=DIRECTION('',(0.,0.,1.));
#716=DIRECTION('center_axis',(0.,0.,-1.));
#717=DIRECTION('ref_axis',(1.,0.,0.));
#718=DIRECTION('',(0.,0.,1.));
#719=DIRECTION('center_axis',(0.,0.,1.));
#720=DIRECTION('ref_axis',(1.,0.,0.));
#721=DIRECTION('center_axis',(0.,0.,1.));
#722=DIRECTION('ref_axis',(1.,0.,0.));
#723=DIRECTION('center_axis',(0.,0.,-1.));
#724=DIRECTION('ref_axis',(1.,0.,0.));
#725=DIRECTION('',(-0.707106781186547,-8.65956056235493E-17,-0.707106781186548));
#726=DIRECTION('center_axis',(0.,0.,-1.));
#727=DIRECTION('ref_axis',(1.,0.,0.));
#728=DIRECTION('center_axis',(0.,0.,1.));
#729=DIRECTION('ref_axis',(1.,0.,0.));
#730=DIRECTION('center_axis',(0.,0.,1.));
#731=DIRECTION('ref_axis',(1.,0.,0.));
#732=DIRECTION('center_axis',(0.,0.,1.));
#733=DIRECTION('ref_axis',(1.,0.,0.));
#734=DIRECTION('center_axis',(0.,0.,-1.));
#735=DIRECTION('ref_axis',(1.,0.,0.));
#736=DIRECTION('',(0.707106781186548,8.65956056235494E-17,-0.707106781186547));
#737=DIRECTION('center_axis',(0.,0.,1.));
#738=DIRECTION('ref_axis',(1.,0.,0.));
#739=DIRECTION('center_axis',(0.,0.,1.));
#740=DIRECTION('ref_axis',(1.,0.,0.));
#741=DIRECTION('',(0.,0.,-1.));
#742=DIRECTION('center_axis',(0.,0.,-1.));
#743=DIRECTION('ref_axis',(1.,0.,0.));
#744=DIRECTION('center_axis',(0.,0.,-1.));
#745=DIRECTION('ref_axis',(1.,0.,0.));
#746=DIRECTION('',(-0.707106781186548,-8.65956056235494E-17,-0.707106781186547));
#747=DIRECTION('center_axis',(0.,0.,1.));
#748=DIRECTION('ref_axis',(1.,0.,0.));
#749=DIRECTION('center_axis',(0.,0.,1.));
#750=DIRECTION('ref_axis',(1.,0.,0.));
#751=DIRECTION('center_axis',(-1.67031112625933E-16,0.707106781186548,-0.707106781186548));
#752=DIRECTION('ref_axis',(-1.,0.,2.36217664813863E-16));
#753=DIRECTION('',(0.,0.707106781186548,0.707106781186548));
#754=DIRECTION('',(1.,2.36217664813863E-16,0.));
#755=DIRECTION('',(-4.52911286158781E-16,-0.707106781186548,-0.707106781186548));
#756=DIRECTION('',(-1.,-2.36217664813863E-16,0.));
#757=DIRECTION('center_axis',(-1.,0.,0.));
#758=DIRECTION('ref_axis',(0.,-1.,0.));
#759=DIRECTION('',(0.,-1.,0.));
#760=DIRECTION('',(0.,1.,0.));
#761=DIRECTION('',(0.,0.,1.));
#762=DIRECTION('center_axis',(0.,0.,1.));
#763=DIRECTION('ref_axis',(1.,0.,0.));
#764=DIRECTION('',(6.4051328343759E-16,1.,0.));
#765=DIRECTION('center_axis',(0.,0.,1.));
#766=DIRECTION('ref_axis',(1.,0.,0.));
#767=DIRECTION('',(-6.4051328343759E-16,-1.,0.));
#768=DIRECTION('',(1.,2.36217664813863E-16,0.));
#769=DIRECTION('center_axis',(-2.36217664813863E-16,1.,0.));
#770=DIRECTION('ref_axis',(-1.,-2.36217664813863E-16,0.));
#771=DIRECTION('',(0.,0.,1.));
#772=DIRECTION('center_axis',(1.,-6.4051328343759E-16,0.));
#773=DIRECTION('ref_axis',(6.4051328343759E-16,1.,0.));
#774=DIRECTION('center_axis',(0.,0.,1.));
#775=DIRECTION('ref_axis',(1.,0.,0.));
#776=DIRECTION('',(0.,0.,-1.));
#777=DIRECTION('center_axis',(0.,0.,1.));
#778=DIRECTION('ref_axis',(1.,0.,0.));
#779=DIRECTION('center_axis',(0.,0.,1.));
#780=DIRECTION('ref_axis',(1.,0.,0.));
#781=DIRECTION('',(-0.707106781186549,8.65956056235495E-17,0.707106781186546));
#782=DIRECTION('center_axis',(0.,0.,-1.));
#783=DIRECTION('ref_axis',(1.,0.,0.));
#784=DIRECTION('center_axis',(0.,0.,-1.));
#785=DIRECTION('ref_axis',(1.,0.,0.));
#786=DIRECTION('',(0.,0.,1.));
#787=DIRECTION('center_axis',(0.,0.,-1.));
#788=DIRECTION('ref_axis',(1.,0.,0.));
#789=DIRECTION('center_axis',(0.,0.,1.));
#790=DIRECTION('ref_axis',(1.,0.,0.));
#791=DIRECTION('center_axis',(0.,0.,1.));
#792=DIRECTION('ref_axis',(1.,0.,0.));
#793=DIRECTION('center_axis',(0.,0.,1.));
#794=DIRECTION('ref_axis',(1.,0.,0.));
#795=DIRECTION('center_axis',(0.,0.,1.));
#796=DIRECTION('ref_axis',(1.,0.,0.));
#797=DIRECTION('',(-0.707106781186549,8.65956056235495E-17,0.707106781186546));
#798=DIRECTION('center_axis',(0.,0.,-1.));
#799=DIRECTION('ref_axis',(1.,0.,0.));
#800=DIRECTION('center_axis',(0.,0.,1.));
#801=DIRECTION('ref_axis',(1.,0.,0.));
#802=DIRECTION('center_axis',(0.,0.,1.));
#803=DIRECTION('ref_axis',(1.,0.,0.));
#804=DIRECTION('',(0.,0.,-1.));
#805=DIRECTION('center_axis',(0.,0.,1.));
#806=DIRECTION('ref_axis',(1.,0.,0.));
#807=DIRECTION('center_axis',(0.,0.,-1.));
#808=DIRECTION('ref_axis',(1.,0.,0.));
#809=DIRECTION('center_axis',(0.,0.,-1.));
#810=DIRECTION('ref_axis',(1.,0.,0.));
#811=DIRECTION('',(-0.707106781186549,-8.65956056235495E-17,-0.707106781186546));
#812=DIRECTION('center_axis',(0.,0.,1.));
#813=DIRECTION('ref_axis',(1.,0.,0.));
#814=DIRECTION('center_axis',(0.,0.,-1.));
#815=DIRECTION('ref_axis',(1.,0.,0.));
#816=DIRECTION('center_axis',(0.,0.,1.));
#817=DIRECTION('ref_axis',(-1.,0.,0.));
#818=DIRECTION('',(-1.,0.,0.));
#819=DIRECTION('center_axis',(0.,0.,1.));
#820=DIRECTION('ref_axis',(1.,0.,0.));
#821=DIRECTION('',(0.,1.,0.));
#822=DIRECTION('center_axis',(0.,0.,1.));
#823=DIRECTION('ref_axis',(-1.,0.,0.));
#824=DIRECTION('',(0.,1.,0.));
#825=DIRECTION('center_axis',(0.,0.,1.));
#826=DIRECTION('ref_axis',(1.,0.,0.));
#827=DIRECTION('',(1.,0.,0.));
#828=DIRECTION('center_axis',(0.,1.,0.));
#829=DIRECTION('ref_axis',(1.,0.,0.));
#830=DIRECTION('',(-1.,0.,0.));
#831=DIRECTION('',(0.,0.,-1.));
#832=DIRECTION('',(1.,0.,0.));
#833=DIRECTION('',(0.,0.,-1.));
#834=DIRECTION('center_axis',(0.,0.,1.));
#835=DIRECTION('ref_axis',(-1.,0.,0.));
#836=DIRECTION('center_axis',(0.,0.,1.));
#837=DIRECTION('ref_axis',(1.,0.,0.));
#838=DIRECTION('',(0.,-1.,0.));
#839=DIRECTION('center_axis',(0.,-1.,0.));
#840=DIRECTION('ref_axis',(-1.,0.,0.));
#841=DIRECTION('',(1.,0.,0.));
#842=DIRECTION('',(0.,0.,-1.));
#843=DIRECTION('',(-1.,0.,0.));
#844=DIRECTION('',(0.,0.,-1.));
#845=DIRECTION('center_axis',(0.,0.,1.));
#846=DIRECTION('ref_axis',(-1.,0.,0.));
#847=DIRECTION('',(0.,-1.,0.));
#848=DIRECTION('center_axis',(0.,0.,1.));
#849=DIRECTION('ref_axis',(1.,0.,0.));
#850=DIRECTION('center_axis',(0.,0.,-1.));
#851=DIRECTION('ref_axis',(1.,0.,0.));
#852=DIRECTION('',(0.,-1.,0.));
#853=DIRECTION('center_axis',(0.,0.,-1.));
#854=DIRECTION('ref_axis',(1.,0.,0.));
#855=DIRECTION('center_axis',(1.,0.,0.));
#856=DIRECTION('ref_axis',(0.,-1.,0.));
#857=DIRECTION('',(0.,0.,-1.));
#858=DIRECTION('',(0.,-1.,0.));
#859=DIRECTION('',(0.,-1.,0.));
#860=DIRECTION('',(0.,0.,-1.));
#861=DIRECTION('center_axis',(-1.,0.,0.));
#862=DIRECTION('ref_axis',(0.,1.,0.));
#863=DIRECTION('',(0.,1.,0.));
#864=DIRECTION('',(0.,0.,-1.));
#865=DIRECTION('',(0.,1.,0.));
#866=DIRECTION('',(0.,1.,0.));
#867=DIRECTION('',(0.,0.,-1.));
#868=DIRECTION('center_axis',(0.,0.,1.));
#869=DIRECTION('ref_axis',(-1.,0.,0.));
#870=DIRECTION('center_axis',(0.,0.,-1.));
#871=DIRECTION('ref_axis',(-1.,0.,0.));
#872=DIRECTION('center_axis',(0.,0.,1.));
#873=DIRECTION('ref_axis',(-1.,0.,0.));
#874=DIRECTION('center_axis',(0.,0.,-1.));
#875=DIRECTION('ref_axis',(-1.,0.,0.));
#876=DIRECTION('center_axis',(0.,0.,-1.));
#877=DIRECTION('ref_axis',(1.,0.,0.));
#878=DIRECTION('center_axis',(0.,0.,-1.));
#879=DIRECTION('ref_axis',(1.,0.,0.));
#880=DIRECTION('center_axis',(0.,0.,-1.));
#881=DIRECTION('ref_axis',(1.,0.,0.));
#882=DIRECTION('center_axis',(0.,0.,-1.));
#883=DIRECTION('ref_axis',(1.,0.,0.));
#884=DIRECTION('',(0.,0.,-1.));
#885=DIRECTION('center_axis',(0.,0.,-1.));
#886=DIRECTION('ref_axis',(1.,0.,0.));
#887=DIRECTION('',(0.,0.,-1.));
#888=CARTESIAN_POINT('',(0.,0.,0.));
#889=CARTESIAN_POINT('Origin',(0.,0.,41.75));
#890=CARTESIAN_POINT('',(7.65,9.36854801347725E-16,42.));
#891=CARTESIAN_POINT('Origin',(0.,0.,42.));
#892=CARTESIAN_POINT('',(7.15,-8.75622461390358E-16,41.5));
#893=CARTESIAN_POINT('',(7.4,9.06238631369041E-16,41.75));
#894=CARTESIAN_POINT('',(-7.15,-8.75622461390358E-16,41.5));
#895=CARTESIAN_POINT('Origin',(0.,0.,41.5));
#896=CARTESIAN_POINT('Origin',(0.,0.,41.5));
#897=CARTESIAN_POINT('Origin',(0.,0.,0.));
#898=CARTESIAN_POINT('',(-7.15,-8.75622461390358E-16,0.5));
#899=CARTESIAN_POINT('',(-7.15,-8.75622461390358E-16,0.));
#900=CARTESIAN_POINT('Origin',(0.,0.,0.5));
#901=CARTESIAN_POINT('',(-2.35,-6.75277720645365,7.));
#902=CARTESIAN_POINT('',(2.35,-6.75277720645365,7.));
#903=CARTESIAN_POINT('Origin',(0.,0.,7.));
#904=CARTESIAN_POINT('',(2.35,-6.75277720645365,24.));
#905=CARTESIAN_POINT('',(2.35,-6.75277720645365,0.));
#906=CARTESIAN_POINT('',(-2.35,-6.75277720645365,24.));
#907=CARTESIAN_POINT('Origin',(0.,0.,24.));
#908=CARTESIAN_POINT('',(-2.35,-6.75277720645365,0.));
#909=CARTESIAN_POINT('Origin',(0.,0.,42.));
#910=CARTESIAN_POINT('',(-10.05,-1.11022302462516E-15,42.));
#911=CARTESIAN_POINT('Origin',(0.,0.,42.));
#912=CARTESIAN_POINT('Origin',(0.,0.,0.25));
#913=CARTESIAN_POINT('',(-7.65,9.36854801347725E-16,0.));
#914=CARTESIAN_POINT('',(-7.4,-9.06238631369041E-16,0.25));
#915=CARTESIAN_POINT('Origin',(0.,0.,0.));
#916=CARTESIAN_POINT('Origin',(0.,0.,0.));
#917=CARTESIAN_POINT('',(-17.,-2.0818995585505E-15,0.));
#918=CARTESIAN_POINT('Origin',(0.,0.,0.));
#919=CARTESIAN_POINT('Origin',(0.,0.,0.25));
#920=CARTESIAN_POINT('',(-17.5,2.14313189850787E-15,0.5));
#921=CARTESIAN_POINT('Origin',(0.,0.,0.5));
#922=CARTESIAN_POINT('',(-17.25,-2.11251572852918E-15,0.25));
#923=CARTESIAN_POINT('Origin',(0.,0.,0.));
#924=CARTESIAN_POINT('',(-17.5,-2.14313189850787E-15,1.5));
#925=CARTESIAN_POINT('Origin',(0.,0.,1.5));
#926=CARTESIAN_POINT('',(-17.5,-2.14313189850787E-15,0.));
#927=CARTESIAN_POINT('Origin',(0.,0.,1.75));
#928=CARTESIAN_POINT('',(-17.,2.0818995585505E-15,2.));
#929=CARTESIAN_POINT('Origin',(0.,0.,2.));
#930=CARTESIAN_POINT('',(-17.25,-2.11251572852918E-15,1.75));
#931=CARTESIAN_POINT('Origin',(0.,0.,2.));
#932=CARTESIAN_POINT('',(-10.05,-1.23077003314309E-15,2.));
#933=CARTESIAN_POINT('Origin',(0.,0.,2.));
#934=CARTESIAN_POINT('Origin',(1.175,-5.5,8.25));
#935=CARTESIAN_POINT('',(-2.35,-6.75,7.));
#936=CARTESIAN_POINT('',(-2.35,-4.25,9.5));
#937=CARTESIAN_POINT('',(-2.35,-7.25,6.5));
#938=CARTESIAN_POINT('',(2.35,-4.25,9.5));
#939=CARTESIAN_POINT('',(1.175,-4.25,9.5));
#940=CARTESIAN_POINT('',(2.35,-6.75,7.));
#941=CARTESIAN_POINT('',(2.35,-7.87569430161341,5.87430569838659));
#942=CARTESIAN_POINT('',(1.175,-6.75,7.));
#943=CARTESIAN_POINT('Origin',(-2.35,-4.25,0.));
#944=CARTESIAN_POINT('',(-2.35,-4.975,7.));
#945=CARTESIAN_POINT('',(-2.35,-4.25,24.));
#946=CARTESIAN_POINT('',(-2.35,-4.975,24.));
#947=CARTESIAN_POINT('',(-2.35,-4.25,0.));
#948=CARTESIAN_POINT('Origin',(0.,-5.7,7.));
#949=CARTESIAN_POINT('',(2.35,-6.22638860322683,7.));
#950=CARTESIAN_POINT('Origin',(0.,-5.7,24.));
#951=CARTESIAN_POINT('',(2.35,-4.25,24.));
#952=CARTESIAN_POINT('',(2.35,-6.22638860322683,24.));
#953=CARTESIAN_POINT('',(1.175,-4.25,24.));
#954=CARTESIAN_POINT('Origin',(2.35,-4.25,0.));
#955=CARTESIAN_POINT('',(2.35,-4.25,0.));
#956=CARTESIAN_POINT('Origin',(2.35,-6.75277720645365,0.));
#957=CARTESIAN_POINT('Origin',(0.,0.,0.));
#958=CARTESIAN_POINT('',(-10.05,-1.23077003314309E-15,0.));
#959=CARTESIAN_POINT('Origin',(0.,0.,24.25));
#960=CARTESIAN_POINT('',(-6.55,-8.02143653441516E-16,24.));
#961=CARTESIAN_POINT('Origin',(0.,0.,24.));
#962=CARTESIAN_POINT('',(-7.05,8.63375993398884E-16,24.5));
#963=CARTESIAN_POINT('',(-6.8,8.327598234202E-16,24.25));
#964=CARTESIAN_POINT('Origin',(0.,0.,24.5));
#965=CARTESIAN_POINT('Origin',(0.,0.,44.));
#966=CARTESIAN_POINT('',(-7.05,8.63375993398884E-16,42.));
#967=CARTESIAN_POINT('',(-7.05,8.63375993398884E-16,44.));
#968=CARTESIAN_POINT('Origin',(0.,0.,42.));
#969=CARTESIAN_POINT('Origin',(0.,0.,24.));
#970=CARTESIAN_POINT('',(-2.7,-3.30654635769785E-16,24.));
#971=CARTESIAN_POINT('Origin',(0.,0.,24.));
#972=CARTESIAN_POINT('Origin',(0.,0.,42.25));
#973=CARTESIAN_POINT('',(-17.,-2.0818995585505E-15,42.));
#974=CARTESIAN_POINT('Origin',(0.,0.,42.));
#975=CARTESIAN_POINT('',(-17.5,2.14313189850787E-15,42.5));
#976=CARTESIAN_POINT('',(-17.25,2.11251572852918E-15,42.25));
#977=CARTESIAN_POINT('Origin',(0.,0.,42.5));
#978=CARTESIAN_POINT('Origin',(0.,0.,42.));
#979=CARTESIAN_POINT('',(-17.5,-2.14313189850787E-15,43.5));
#980=CARTESIAN_POINT('Origin',(0.,0.,43.5));
#981=CARTESIAN_POINT('',(-17.5,-2.14313189850787E-15,42.));
#982=CARTESIAN_POINT('Origin',(0.,0.,42.));
#983=CARTESIAN_POINT('Origin',(0.,0.,43.75));
#984=CARTESIAN_POINT('',(-17.,2.0818995585505E-15,44.));
#985=CARTESIAN_POINT('Origin',(0.,0.,44.));
#986=CARTESIAN_POINT('',(-17.25,-2.11251572852918E-15,43.75));
#987=CARTESIAN_POINT('Origin',(0.,0.,44.));
#988=CARTESIAN_POINT('',(-4.3,5.26598123633362E-16,44.));
#989=CARTESIAN_POINT('Origin',(0.,0.,44.));
#990=CARTESIAN_POINT('Origin',(-1.35,-1.35,39.6));
#991=CARTESIAN_POINT('',(0.,-2.7,39.6));
#992=CARTESIAN_POINT('',(-2.7,-2.7,39.6));
#993=CARTESIAN_POINT('',(2.7,-2.7,39.6));
#994=CARTESIAN_POINT('',(-2.7,0.,39.6));
#995=CARTESIAN_POINT('Origin',(0.,0.,39.6));
#996=CARTESIAN_POINT('',(-2.7,-2.7,39.6));
#997=CARTESIAN_POINT('Origin',(-1.35,1.35,39.6));
#998=CARTESIAN_POINT('',(-2.7,2.7,39.6));
#999=CARTESIAN_POINT('',(-2.7,-2.7,39.6));
#1000=CARTESIAN_POINT('',(0.,2.7,39.6));
#1001=CARTESIAN_POINT('Origin',(0.,0.,39.6));
#1002=CARTESIAN_POINT('',(-2.7,2.7,39.6));
#1003=CARTESIAN_POINT('Origin',(0.,2.7,40.));
#1004=CARTESIAN_POINT('',(2.7,2.7,39.8));
#1005=CARTESIAN_POINT('',(-2.7,2.7,39.8));
#1006=CARTESIAN_POINT('',(-2.7,2.7,39.8));
#1007=CARTESIAN_POINT('',(-2.7,2.7,40.));
#1008=CARTESIAN_POINT('',(2.7,2.7,39.6));
#1009=CARTESIAN_POINT('',(-2.7,2.7,39.6));
#1010=CARTESIAN_POINT('',(2.7,2.7,40.));
#1011=CARTESIAN_POINT('Origin',(1.35,1.35,39.6));
#1012=CARTESIAN_POINT('',(2.7,-5.55111512312578E-16,39.6));
#1013=CARTESIAN_POINT('Origin',(0.,0.,39.6));
#1014=CARTESIAN_POINT('',(2.7,2.7,39.6));
#1015=CARTESIAN_POINT('Origin',(2.7,-2.7,40.));
#1016=CARTESIAN_POINT('',(-2.7,-2.7,39.8));
#1017=CARTESIAN_POINT('',(2.7,-2.7,39.8));
#1018=CARTESIAN_POINT('',(2.7,-2.7,39.8));
#1019=CARTESIAN_POINT('',(2.7,-2.7,39.6));
#1020=CARTESIAN_POINT('',(2.7,-2.7,40.));
#1021=CARTESIAN_POINT('',(2.7,-2.7,39.6));
#1022=CARTESIAN_POINT('',(-2.7,-2.7,40.));
#1023=CARTESIAN_POINT('Origin',(1.35,-1.35,39.6));
#1024=CARTESIAN_POINT('',(2.7,2.7,39.6));
#1025=CARTESIAN_POINT('Origin',(0.,0.,39.6));
#1026=CARTESIAN_POINT('Origin',(0.,0.,40.));
#1027=CARTESIAN_POINT('',(2.7,3.3466401061363,40.));
#1028=CARTESIAN_POINT('',(2.7,-3.3466401061363,40.));
#1029=CARTESIAN_POINT('',(2.7,1.67332005306815,40.));
#1030=CARTESIAN_POINT('Origin',(0.,0.,40.));
#1031=CARTESIAN_POINT('Origin',(2.7,3.3466401061363,40.));
#1032=CARTESIAN_POINT('',(2.7,3.3466401061363,39.8));
#1033=CARTESIAN_POINT('',(2.7,3.3466401061363,40.));
#1034=CARTESIAN_POINT('',(2.7,2.7,39.8));
#1035=CARTESIAN_POINT('',(2.7,-3.3466401061363,39.8));
#1036=CARTESIAN_POINT('',(2.7,-2.7,39.8));
#1037=CARTESIAN_POINT('',(2.7,-3.3466401061363,40.));
#1038=CARTESIAN_POINT('Origin',(-2.7,2.7,40.));
#1039=CARTESIAN_POINT('',(-2.7,-3.3466401061363,40.));
#1040=CARTESIAN_POINT('',(-2.7,3.3466401061363,40.));
#1041=CARTESIAN_POINT('',(-2.7,1.35,40.));
#1042=CARTESIAN_POINT('',(-2.7,-3.3466401061363,39.8));
#1043=CARTESIAN_POINT('',(-2.7,-3.3466401061363,40.));
#1044=CARTESIAN_POINT('',(-2.7,-2.7,39.8));
#1045=CARTESIAN_POINT('',(-2.7,3.3466401061363,39.8));
#1046=CARTESIAN_POINT('',(-2.7,2.7,39.8));
#1047=CARTESIAN_POINT('',(-2.7,3.3466401061363,40.));
#1048=CARTESIAN_POINT('Origin',(0.,3.5,39.8));
#1049=CARTESIAN_POINT('Origin',(0.,0.,39.8));
#1050=CARTESIAN_POINT('Origin',(0.,-3.5,39.8));
#1051=CARTESIAN_POINT('Origin',(0.,0.,39.8));
#1052=CARTESIAN_POINT('Origin',(0.,0.,40.));
#1053=CARTESIAN_POINT('',(-4.3,5.26598123633362E-16,40.));
#1054=CARTESIAN_POINT('Origin',(0.,0.,40.));
#1055=CARTESIAN_POINT('Origin',(0.,0.,40.));
#1056=CARTESIAN_POINT('Origin',(0.,0.,42.));
#1057=CARTESIAN_POINT('',(-4.3,5.26598123633362E-16,42.));
#1058=CARTESIAN_POINT('Origin',(0.,0.,11.5));
#1059=CARTESIAN_POINT('',(-2.7,3.30654635769785E-16,11.5));
#1060=UNCERTAINTY_MEASURE_WITH_UNIT(LENGTH_MEASURE(0.01),#1064,
'DISTANCE_ACCURACY_VALUE',
'Maximum model space distance between geometric entities at asserted c
onnectivities');
#1061=UNCERTAINTY_MEASURE_WITH_UNIT(LENGTH_MEASURE(0.01),#1064,
'DISTANCE_ACCURACY_VALUE',
'Maximum model space distance between geometric entities at asserted c
onnectivities');
#1062=(
GEOMETRIC_REPRESENTATION_CONTEXT(3)
GLOBAL_UNCERTAINTY_ASSIGNED_CONTEXT((#1060))
GLOBAL_UNIT_ASSIGNED_CONTEXT((#1064,#1066,#1067))
REPRESENTATION_CONTEXT('','3D')
);
#1063=(
GEOMETRIC_REPRESENTATION_CONTEXT(3)
GLOBAL_UNCERTAINTY_ASSIGNED_CONTEXT((#1061))
GLOBAL_UNIT_ASSIGNED_CONTEXT((#1064,#1066,#1067))
REPRESENTATION_CONTEXT('','3D')
);
#1064=(
LENGTH_UNIT()
NAMED_UNIT(*)
SI_UNIT(.MILLI.,.METRE.)
);
#1065=(
LENGTH_UNIT()
NAMED_UNIT(*)
SI_UNIT($,.METRE.)
);
#1066=(
NAMED_UNIT(*)
PLANE_ANGLE_UNIT()
SI_UNIT($,.RADIAN.)
);
#1067=(
NAMED_UNIT(*)
SI_UNIT($,.STERADIAN.)
SOLID_ANGLE_UNIT()
);
#1068=SHAPE_DEFINITION_REPRESENTATION(#1069,#1070);
#1069=PRODUCT_DEFINITION_SHAPE('',$,#1072);
#1070=SHAPE_REPRESENTATION('',(#627),#1062);
#1071=PRODUCT_DEFINITION_CONTEXT('part definition',#1076,'design');
#1072=PRODUCT_DEFINITION('BushingPulley60AIM_HGR',
'BushingPulley60AIM_HGR v9',#1073,#1071);
#1073=PRODUCT_DEFINITION_FORMATION('',$,#1078);
#1074=PRODUCT_RELATED_PRODUCT_CATEGORY('BushingPulley60AIM_HGR v9',
'BushingPulley60AIM_HGR v9',(#1078));
#1075=APPLICATION_PROTOCOL_DEFINITION('international standard',
'automotive_design',2009,#1076);
#1076=APPLICATION_CONTEXT(
'Core Data for Automotive Mechanical Design Process');
#1077=PRODUCT_CONTEXT('part definition',#1076,'mechanical');
#1078=PRODUCT('BushingPulley60AIM_HGR','BushingPulley60AIM_HGR v9',$,(#1077));
#1079=PRESENTATION_STYLE_ASSIGNMENT((#1080));
#1080=SURFACE_STYLE_USAGE(.BOTH.,#1081);
#1081=SURFACE_SIDE_STYLE('',(#1082));
#1082=SURFACE_STYLE_FILL_AREA(#1083);
#1083=FILL_AREA_STYLE('Steel - Satin',(#1084));
#1084=FILL_AREA_STYLE_COLOUR('Steel - Satin',#1085);
#1085=COLOUR_RGB('Steel - Satin',0.627450980392157,0.627450980392157,0.627450980392157);
ENDSEC;
END-ISO-10303-21;
